<?xml version="1.0" standalone="no"?>
<svg xmlns="http://www.w3.org/2000/svg" xmlns:xlink="http://www.w3.org/1999/xlink" width="2556pt" height="1401pt" viewBox="0.00 0.00 2556.47 1400.80">
<g id="graph0" class="graph" transform="translate(4,1396.800048828125) scale(1)" data-name="Tree">

<polygon fill="white" stroke="none" points="-4,4 -4,-1396.8 2552.47,-1396.8 2552.47,4 -4,4" style=""/>
<!-- 0 -->
<g id="node1" class="node" pointer-events="visible" data-name="0">

<path fill="none" stroke="black" d="M1383.85,-1392.9C1383.85,-1392.9 1241.62,-1392.9 1241.62,-1392.9 1235.62,-1392.9 1229.62,-1386.9 1229.62,-1380.9 1229.62,-1380.9 1229.62,-1329.5 1229.62,-1329.5 1229.62,-1323.5 1235.62,-1317.5 1241.62,-1317.5 1241.62,-1317.5 1383.85,-1317.5 1383.85,-1317.5 1389.85,-1317.5 1395.85,-1323.5 1395.85,-1329.5 1395.85,-1329.5 1395.85,-1380.9 1395.85,-1380.9 1395.85,-1386.9 1389.85,-1392.9 1383.85,-1392.9" style=""/>
<text text-anchor="middle" x="1312.74" y="-1376.2" font-family="Helvetica,sans-Serif" font-size="14.00" style="">x[6] &lt;= 1984.5</text>
<text text-anchor="middle" x="1312.74" y="-1359.4" font-family="Helvetica,sans-Serif" font-size="14.00" style="">gini = 0.4</text>
<text text-anchor="middle" x="1312.74" y="-1342.6" font-family="Helvetica,sans-Serif" font-size="14.00" style="">samples = 650</text>
<text text-anchor="middle" x="1312.74" y="-1325.8" font-family="Helvetica,sans-Serif" font-size="14.00" style="">value = [735, 270, 15, 2]</text>
</g>
<!-- 1 -->
<g id="node2" class="node" pointer-events="visible" data-name="1">

<path fill="none" stroke="black" d="M1235.28,-1281.7C1235.28,-1281.7 1108.19,-1281.7 1108.19,-1281.7 1102.19,-1281.7 1096.19,-1275.7 1096.19,-1269.7 1096.19,-1269.7 1096.19,-1218.3 1096.19,-1218.3 1096.19,-1212.3 1102.19,-1206.3 1108.19,-1206.3 1108.19,-1206.3 1235.28,-1206.3 1235.28,-1206.3 1241.28,-1206.3 1247.28,-1212.3 1247.28,-1218.3 1247.28,-1218.3 1247.28,-1269.7 1247.28,-1269.7 1247.28,-1275.7 1241.28,-1281.7 1235.28,-1281.7" style=""/>
<text text-anchor="middle" x="1171.74" y="-1265" font-family="Helvetica,sans-Serif" font-size="14.00" style="">x[33] &lt;= 657.0</text>
<text text-anchor="middle" x="1171.74" y="-1248.2" font-family="Helvetica,sans-Serif" font-size="14.00" style="">gini = 0.2</text>
<text text-anchor="middle" x="1171.74" y="-1231.4" font-family="Helvetica,sans-Serif" font-size="14.00" style="">samples = 404</text>
<text text-anchor="middle" x="1171.74" y="-1214.6" font-family="Helvetica,sans-Serif" font-size="14.00" style="">value = [571, 56, 0, 0]</text>
</g>
<!-- 0&#45;&gt;1 -->
<g id="edge1" class="edge" data-name="0-&gt;1">

<path fill="none" stroke="black" d="M1265,-1317.23C1253.17,-1308.07 1240.38,-1298.17 1228.18,-1288.72" style=""/>
<polygon fill="black" stroke="black" points="1230.67,-1286.21 1220.62,-1282.86 1226.38,-1291.75 1230.67,-1286.21" style=""/>
<text text-anchor="middle" x="1222.57" y="-1302.53" font-family="Helvetica,sans-Serif" font-size="14.00" style="">True</text>
</g>
<!-- 44 -->
<g id="node45" class="node" pointer-events="visible" data-name="44">

<path fill="none" stroke="black" d="M1537.85,-1281.7C1537.85,-1281.7 1395.62,-1281.7 1395.62,-1281.7 1389.62,-1281.7 1383.62,-1275.7 1383.62,-1269.7 1383.62,-1269.7 1383.62,-1218.3 1383.62,-1218.3 1383.62,-1212.3 1389.62,-1206.3 1395.62,-1206.3 1395.62,-1206.3 1537.85,-1206.3 1537.85,-1206.3 1543.85,-1206.3 1549.85,-1212.3 1549.85,-1218.3 1549.85,-1218.3 1549.85,-1269.7 1549.85,-1269.7 1549.85,-1275.7 1543.85,-1281.7 1537.85,-1281.7" style=""/>
<text text-anchor="middle" x="1466.74" y="-1265" font-family="Helvetica,sans-Serif" font-size="14.00" style="">x[38] &lt;= 200500.0</text>
<text text-anchor="middle" x="1466.74" y="-1248.2" font-family="Helvetica,sans-Serif" font-size="14.00" style="">gini = 0.5</text>
<text text-anchor="middle" x="1466.74" y="-1231.4" font-family="Helvetica,sans-Serif" font-size="14.00" style="">samples = 246</text>
<text text-anchor="middle" x="1466.74" y="-1214.6" font-family="Helvetica,sans-Serif" font-size="14.00" style="">value = [164, 214, 15, 2]</text>
</g>
<!-- 0&#45;&gt;44 -->
<g id="edge44" class="edge" data-name="0-&gt;44">

<path fill="none" stroke="black" d="M1364.87,-1317.23C1377.85,-1308.03 1391.88,-1298.08 1405.25,-1288.6" style=""/>
<polygon fill="black" stroke="black" points="1407.02,-1291.63 1413.16,-1282.99 1402.97,-1285.92 1407.02,-1291.63" style=""/>
<text text-anchor="middle" x="1410.2" y="-1302.56" font-family="Helvetica,sans-Serif" font-size="14.00" style="">False</text>
</g>
<!-- 2 -->
<g id="node3" class="node" pointer-events="visible" data-name="2">

<path fill="none" stroke="black" d="M1025.28,-1170.5C1025.28,-1170.5 898.19,-1170.5 898.19,-1170.5 892.19,-1170.5 886.19,-1164.5 886.19,-1158.5 886.19,-1158.5 886.19,-1107.1 886.19,-1107.1 886.19,-1101.1 892.19,-1095.1 898.19,-1095.1 898.19,-1095.1 1025.28,-1095.1 1025.28,-1095.1 1031.28,-1095.1 1037.28,-1101.1 1037.28,-1107.1 1037.28,-1107.1 1037.28,-1158.5 1037.28,-1158.5 1037.28,-1164.5 1031.28,-1170.5 1025.28,-1170.5" style=""/>
<text text-anchor="middle" x="961.74" y="-1153.8" font-family="Helvetica,sans-Serif" font-size="14.00" style="">x[4] &lt;= 6.5</text>
<text text-anchor="middle" x="961.74" y="-1137" font-family="Helvetica,sans-Serif" font-size="14.00" style="">gini = 0.2</text>
<text text-anchor="middle" x="961.74" y="-1120.2" font-family="Helvetica,sans-Serif" font-size="14.00" style="">samples = 403</text>
<text text-anchor="middle" x="961.74" y="-1103.4" font-family="Helvetica,sans-Serif" font-size="14.00" style="">value = [571, 54, 0, 0]</text>
</g>
<!-- 1&#45;&gt;2 -->
<g id="edge2" class="edge" data-name="1-&gt;2">

<path fill="none" stroke="black" d="M1100.35,-1205.88C1081.9,-1196.29 1061.91,-1185.89 1043,-1176.06" style=""/>
<polygon fill="black" stroke="black" points="1044.76,-1173.03 1034.27,-1171.52 1041.53,-1179.24 1044.76,-1173.03" style=""/>
</g>
<!-- 43 -->
<g id="node44" class="node" pointer-events="visible" data-name="43">

<path fill="none" stroke="black" d="M1223.42,-1162.2C1223.42,-1162.2 1120.05,-1162.2 1120.05,-1162.2 1114.05,-1162.2 1108.05,-1156.2 1108.05,-1150.2 1108.05,-1150.2 1108.05,-1115.4 1108.05,-1115.4 1108.05,-1109.4 1114.05,-1103.4 1120.05,-1103.4 1120.05,-1103.4 1223.42,-1103.4 1223.42,-1103.4 1229.42,-1103.4 1235.42,-1109.4 1235.42,-1115.4 1235.42,-1115.4 1235.42,-1150.2 1235.42,-1150.2 1235.42,-1156.2 1229.42,-1162.2 1223.42,-1162.2" style=""/>
<text text-anchor="middle" x="1171.74" y="-1145.4" font-family="Helvetica,sans-Serif" font-size="14.00" style="">gini = 0.0</text>
<text text-anchor="middle" x="1171.74" y="-1128.6" font-family="Helvetica,sans-Serif" font-size="14.00" style="">samples = 1</text>
<text text-anchor="middle" x="1171.74" y="-1111.8" font-family="Helvetica,sans-Serif" font-size="14.00" style="">value = [0, 2, 0, 0]</text>
</g>
<!-- 1&#45;&gt;43 -->
<g id="edge43" class="edge" data-name="1-&gt;43">

<path fill="none" stroke="black" d="M1171.74,-1206.03C1171.74,-1195.69 1171.74,-1184.41 1171.74,-1173.89" style=""/>
<polygon fill="black" stroke="black" points="1175.24,-1173.96 1171.74,-1163.96 1168.24,-1173.96 1175.24,-1173.96" style=""/>
</g>
<!-- 3 -->
<g id="node4" class="node" pointer-events="visible" data-name="3">

<path fill="none" stroke="black" d="M811.28,-1059.3C811.28,-1059.3 684.19,-1059.3 684.19,-1059.3 678.19,-1059.3 672.19,-1053.3 672.19,-1047.3 672.19,-1047.3 672.19,-995.9 672.19,-995.9 672.19,-989.9 678.19,-983.9 684.19,-983.9 684.19,-983.9 811.28,-983.9 811.28,-983.9 817.28,-983.9 823.28,-989.9 823.28,-995.9 823.28,-995.9 823.28,-1047.3 823.28,-1047.3 823.28,-1053.3 817.28,-1059.3 811.28,-1059.3" style=""/>
<text text-anchor="middle" x="747.74" y="-1042.6" font-family="Helvetica,sans-Serif" font-size="14.00" style="">x[17] &lt;= 0.5</text>
<text text-anchor="middle" x="747.74" y="-1025.8" font-family="Helvetica,sans-Serif" font-size="14.00" style="">gini = 0.1</text>
<text text-anchor="middle" x="747.74" y="-1009" font-family="Helvetica,sans-Serif" font-size="14.00" style="">samples = 364</text>
<text text-anchor="middle" x="747.74" y="-992.2" font-family="Helvetica,sans-Serif" font-size="14.00" style="">value = [547, 20, 0, 0]</text>
</g>
<!-- 2&#45;&gt;3 -->
<g id="edge3" class="edge" data-name="2-&gt;3">

<path fill="none" stroke="black" d="M888.99,-1094.68C870.1,-1085.04 849.63,-1074.59 830.28,-1064.72" style=""/>
<polygon fill="black" stroke="black" points="832.13,-1061.74 821.63,-1060.31 828.95,-1067.97 832.13,-1061.74" style=""/>
</g>
<!-- 34 -->
<g id="node35" class="node" pointer-events="visible" data-name="34">

<path fill="none" stroke="black" d="M1021.49,-1059.3C1021.49,-1059.3 901.98,-1059.3 901.98,-1059.3 895.98,-1059.3 889.98,-1053.3 889.98,-1047.3 889.98,-1047.3 889.98,-995.9 889.98,-995.9 889.98,-989.9 895.98,-983.9 901.98,-983.9 901.98,-983.9 1021.49,-983.9 1021.49,-983.9 1027.49,-983.9 1033.49,-989.9 1033.49,-995.9 1033.49,-995.9 1033.49,-1047.3 1033.49,-1047.3 1033.49,-1053.3 1027.49,-1059.3 1021.49,-1059.3" style=""/>
<text text-anchor="middle" x="961.74" y="-1042.6" font-family="Helvetica,sans-Serif" font-size="14.00" style="">x[1] &lt;= 42.5</text>
<text text-anchor="middle" x="961.74" y="-1025.8" font-family="Helvetica,sans-Serif" font-size="14.00" style="">gini = 0.5</text>
<text text-anchor="middle" x="961.74" y="-1009" font-family="Helvetica,sans-Serif" font-size="14.00" style="">samples = 39</text>
<text text-anchor="middle" x="961.74" y="-992.2" font-family="Helvetica,sans-Serif" font-size="14.00" style="">value = [24, 34, 0, 0]</text>
</g>
<!-- 2&#45;&gt;34 -->
<g id="edge34" class="edge" data-name="2-&gt;34">

<path fill="none" stroke="black" d="M961.74,-1094.83C961.74,-1087.18 961.74,-1079.01 961.74,-1071.03" style=""/>
<polygon fill="black" stroke="black" points="965.24,-1071.05 961.74,-1061.05 958.24,-1071.05 965.24,-1071.05" style=""/>
</g>
<!-- 4 -->
<g id="node5" class="node" pointer-events="visible" data-name="4">

<path fill="none" stroke="black" d="M572.49,-948.1C572.49,-948.1 452.98,-948.1 452.98,-948.1 446.98,-948.1 440.98,-942.1 440.98,-936.1 440.98,-936.1 440.98,-884.7 440.98,-884.7 440.98,-878.7 446.98,-872.7 452.98,-872.7 452.98,-872.7 572.49,-872.7 572.49,-872.7 578.49,-872.7 584.49,-878.7 584.49,-884.7 584.49,-884.7 584.49,-936.1 584.49,-936.1 584.49,-942.1 578.49,-948.1 572.49,-948.1" style=""/>
<text text-anchor="middle" x="512.74" y="-931.4" font-family="Helvetica,sans-Serif" font-size="14.00" style="">x[71] &lt;= 0.5</text>
<text text-anchor="middle" x="512.74" y="-914.6" font-family="Helvetica,sans-Serif" font-size="14.00" style="">gini = 0.0</text>
<text text-anchor="middle" x="512.74" y="-897.8" font-family="Helvetica,sans-Serif" font-size="14.00" style="">samples = 238</text>
<text text-anchor="middle" x="512.74" y="-881" font-family="Helvetica,sans-Serif" font-size="14.00" style="">value = [365, 6, 0, 0]</text>
</g>
<!-- 3&#45;&gt;4 -->
<g id="edge4" class="edge" data-name="3-&gt;4">

<path fill="none" stroke="black" d="M671.76,-985.3C647.25,-973.91 619.96,-961.23 595.02,-949.63" style=""/>
<polygon fill="black" stroke="black" points="596.77,-946.59 586.22,-945.55 593.82,-952.94 596.77,-946.59" style=""/>
</g>
<!-- 21 -->
<g id="node22" class="node" pointer-events="visible" data-name="21">

<path fill="none" stroke="black" d="M811.28,-948.1C811.28,-948.1 684.19,-948.1 684.19,-948.1 678.19,-948.1 672.19,-942.1 672.19,-936.1 672.19,-936.1 672.19,-884.7 672.19,-884.7 672.19,-878.7 678.19,-872.7 684.19,-872.7 684.19,-872.7 811.28,-872.7 811.28,-872.7 817.28,-872.7 823.28,-878.7 823.28,-884.7 823.28,-884.7 823.28,-936.1 823.28,-936.1 823.28,-942.1 817.28,-948.1 811.28,-948.1" style=""/>
<text text-anchor="middle" x="747.74" y="-931.4" font-family="Helvetica,sans-Serif" font-size="14.00" style="">x[19] &lt;= 2.5</text>
<text text-anchor="middle" x="747.74" y="-914.6" font-family="Helvetica,sans-Serif" font-size="14.00" style="">gini = 0.1</text>
<text text-anchor="middle" x="747.74" y="-897.8" font-family="Helvetica,sans-Serif" font-size="14.00" style="">samples = 126</text>
<text text-anchor="middle" x="747.74" y="-881" font-family="Helvetica,sans-Serif" font-size="14.00" style="">value = [182, 14, 0, 0]</text>
</g>
<!-- 3&#45;&gt;21 -->
<g id="edge21" class="edge" data-name="3-&gt;21">

<path fill="none" stroke="black" d="M747.74,-983.63C747.74,-975.98 747.74,-967.81 747.74,-959.83" style=""/>
<polygon fill="black" stroke="black" points="751.24,-959.85 747.74,-949.85 744.24,-959.85 751.24,-959.85" style=""/>
</g>
<!-- 5 -->
<g id="node6" class="node" pointer-events="visible" data-name="5">

<path fill="none" stroke="black" d="M411.49,-828.6C411.49,-828.6 291.98,-828.6 291.98,-828.6 285.98,-828.6 279.98,-822.6 279.98,-816.6 279.98,-816.6 279.98,-781.8 279.98,-781.8 279.98,-775.8 285.98,-769.8 291.98,-769.8 291.98,-769.8 411.49,-769.8 411.49,-769.8 417.49,-769.8 423.49,-775.8 423.49,-781.8 423.49,-781.8 423.49,-816.6 423.49,-816.6 423.49,-822.6 417.49,-828.6 411.49,-828.6" style=""/>
<text text-anchor="middle" x="351.74" y="-811.8" font-family="Helvetica,sans-Serif" font-size="14.00" style="">gini = 0.0</text>
<text text-anchor="middle" x="351.74" y="-795" font-family="Helvetica,sans-Serif" font-size="14.00" style="">samples = 151</text>
<text text-anchor="middle" x="351.74" y="-778.2" font-family="Helvetica,sans-Serif" font-size="14.00" style="">value = [239, 0, 0, 0]</text>
</g>
<!-- 4&#45;&gt;5 -->
<g id="edge5" class="edge" data-name="4-&gt;5">

<path fill="none" stroke="black" d="M458.23,-872.43C440.6,-860.47 421.11,-847.26 403.68,-835.43" style=""/>
<polygon fill="black" stroke="black" points="405.72,-832.59 395.48,-829.87 401.79,-838.38 405.72,-832.59" style=""/>
</g>
<!-- 6 -->
<g id="node7" class="node" pointer-events="visible" data-name="6">

<path fill="none" stroke="black" d="M572.49,-836.9C572.49,-836.9 452.98,-836.9 452.98,-836.9 446.98,-836.9 440.98,-830.9 440.98,-824.9 440.98,-824.9 440.98,-773.5 440.98,-773.5 440.98,-767.5 446.98,-761.5 452.98,-761.5 452.98,-761.5 572.49,-761.5 572.49,-761.5 578.49,-761.5 584.49,-767.5 584.49,-773.5 584.49,-773.5 584.49,-824.9 584.49,-824.9 584.49,-830.9 578.49,-836.9 572.49,-836.9" style=""/>
<text text-anchor="middle" x="512.74" y="-820.2" font-family="Helvetica,sans-Serif" font-size="14.00" style="">x[16] &lt;= 2706.0</text>
<text text-anchor="middle" x="512.74" y="-803.4" font-family="Helvetica,sans-Serif" font-size="14.00" style="">gini = 0.1</text>
<text text-anchor="middle" x="512.74" y="-786.6" font-family="Helvetica,sans-Serif" font-size="14.00" style="">samples = 87</text>
<text text-anchor="middle" x="512.74" y="-769.8" font-family="Helvetica,sans-Serif" font-size="14.00" style="">value = [126, 6, 0, 0]</text>
</g>
<!-- 4&#45;&gt;6 -->
<g id="edge6" class="edge" data-name="4-&gt;6">

<path fill="none" stroke="black" d="M512.74,-872.43C512.74,-864.78 512.74,-856.61 512.74,-848.63" style=""/>
<polygon fill="black" stroke="black" points="516.24,-848.65 512.74,-838.65 509.24,-848.65 516.24,-848.65" style=""/>
</g>
<!-- 7 -->
<g id="node8" class="node" pointer-events="visible" data-name="7">

<path fill="none" stroke="black" d="M419.49,-725.7C419.49,-725.7 299.98,-725.7 299.98,-725.7 293.98,-725.7 287.98,-719.7 287.98,-713.7 287.98,-713.7 287.98,-662.3 287.98,-662.3 287.98,-656.3 293.98,-650.3 299.98,-650.3 299.98,-650.3 419.49,-650.3 419.49,-650.3 425.49,-650.3 431.49,-656.3 431.49,-662.3 431.49,-662.3 431.49,-713.7 431.49,-713.7 431.49,-719.7 425.49,-725.7 419.49,-725.7" style=""/>
<text text-anchor="middle" x="359.74" y="-709" font-family="Helvetica,sans-Serif" font-size="14.00" style="">x[28] &lt;= 458.5</text>
<text text-anchor="middle" x="359.74" y="-692.2" font-family="Helvetica,sans-Serif" font-size="14.00" style="">gini = 0.1</text>
<text text-anchor="middle" x="359.74" y="-675.4" font-family="Helvetica,sans-Serif" font-size="14.00" style="">samples = 86</text>
<text text-anchor="middle" x="359.74" y="-658.6" font-family="Helvetica,sans-Serif" font-size="14.00" style="">value = [126, 5, 0, 0]</text>
</g>
<!-- 6&#45;&gt;7 -->
<g id="edge7" class="edge" data-name="6-&gt;7">

<path fill="none" stroke="black" d="M460.94,-761.23C448.05,-752.03 434.11,-742.08 420.82,-732.6" style=""/>
<polygon fill="black" stroke="black" points="423.15,-729.96 412.97,-727 419.08,-735.66 423.15,-729.96" style=""/>
</g>
<!-- 20 -->
<g id="node21" class="node" pointer-events="visible" data-name="20">

<path fill="none" stroke="black" d="M564.42,-717.4C564.42,-717.4 461.05,-717.4 461.05,-717.4 455.05,-717.4 449.05,-711.4 449.05,-705.4 449.05,-705.4 449.05,-670.6 449.05,-670.6 449.05,-664.6 455.05,-658.6 461.05,-658.6 461.05,-658.6 564.42,-658.6 564.42,-658.6 570.42,-658.6 576.42,-664.6 576.42,-670.6 576.42,-670.6 576.42,-705.4 576.42,-705.4 576.42,-711.4 570.42,-717.4 564.42,-717.4" style=""/>
<text text-anchor="middle" x="512.74" y="-700.6" font-family="Helvetica,sans-Serif" font-size="14.00" style="">gini = 0.0</text>
<text text-anchor="middle" x="512.74" y="-683.8" font-family="Helvetica,sans-Serif" font-size="14.00" style="">samples = 1</text>
<text text-anchor="middle" x="512.74" y="-667" font-family="Helvetica,sans-Serif" font-size="14.00" style="">value = [0, 1, 0, 0]</text>
</g>
<!-- 6&#45;&gt;20 -->
<g id="edge20" class="edge" data-name="6-&gt;20">

<path fill="none" stroke="black" d="M512.74,-761.23C512.74,-750.89 512.74,-739.61 512.74,-729.09" style=""/>
<polygon fill="black" stroke="black" points="516.24,-729.16 512.74,-719.16 509.24,-729.16 516.24,-729.16" style=""/>
</g>
<!-- 8 -->
<g id="node9" class="node" pointer-events="visible" data-name="8">

<path fill="none" stroke="black" d="M267.49,-614.5C267.49,-614.5 147.98,-614.5 147.98,-614.5 141.98,-614.5 135.98,-608.5 135.98,-602.5 135.98,-602.5 135.98,-551.1 135.98,-551.1 135.98,-545.1 141.98,-539.1 147.98,-539.1 147.98,-539.1 267.49,-539.1 267.49,-539.1 273.49,-539.1 279.49,-545.1 279.49,-551.1 279.49,-551.1 279.49,-602.5 279.49,-602.5 279.49,-608.5 273.49,-614.5 267.49,-614.5" style=""/>
<text text-anchor="middle" x="207.74" y="-597.8" font-family="Helvetica,sans-Serif" font-size="14.00" style="">x[5] &lt;= 6.5</text>
<text text-anchor="middle" x="207.74" y="-581" font-family="Helvetica,sans-Serif" font-size="14.00" style="">gini = 0.1</text>
<text text-anchor="middle" x="207.74" y="-564.2" font-family="Helvetica,sans-Serif" font-size="14.00" style="">samples = 85</text>
<text text-anchor="middle" x="207.74" y="-547.4" font-family="Helvetica,sans-Serif" font-size="14.00" style="">value = [126, 4, 0, 0]</text>
</g>
<!-- 7&#45;&gt;8 -->
<g id="edge8" class="edge" data-name="7-&gt;8">

<path fill="none" stroke="black" d="M308.28,-650.03C295.47,-640.83 281.62,-630.88 268.42,-621.4" style=""/>
<polygon fill="black" stroke="black" points="270.79,-618.79 260.63,-615.8 266.71,-624.48 270.79,-618.79" style=""/>
</g>
<!-- 19 -->
<g id="node20" class="node" pointer-events="visible" data-name="19">

<path fill="none" stroke="black" d="M412.42,-606.2C412.42,-606.2 309.05,-606.2 309.05,-606.2 303.05,-606.2 297.05,-600.2 297.05,-594.2 297.05,-594.2 297.05,-559.4 297.05,-559.4 297.05,-553.4 303.05,-547.4 309.05,-547.4 309.05,-547.4 412.42,-547.4 412.42,-547.4 418.42,-547.4 424.42,-553.4 424.42,-559.4 424.42,-559.4 424.42,-594.2 424.42,-594.2 424.42,-600.2 418.42,-606.2 412.42,-606.2" style=""/>
<text text-anchor="middle" x="360.74" y="-589.4" font-family="Helvetica,sans-Serif" font-size="14.00" style="">gini = 0.0</text>
<text text-anchor="middle" x="360.74" y="-572.6" font-family="Helvetica,sans-Serif" font-size="14.00" style="">samples = 1</text>
<text text-anchor="middle" x="360.74" y="-555.8" font-family="Helvetica,sans-Serif" font-size="14.00" style="">value = [0, 1, 0, 0]</text>
</g>
<!-- 7&#45;&gt;19 -->
<g id="edge19" class="edge" data-name="7-&gt;19">

<path fill="none" stroke="black" d="M360.07,-650.03C360.17,-639.69 360.27,-628.41 360.37,-617.89" style=""/>
<polygon fill="black" stroke="black" points="363.87,-617.99 360.46,-607.96 356.87,-617.93 363.87,-617.99" style=""/>
</g>
<!-- 9 -->
<g id="node10" class="node" pointer-events="visible" data-name="9">

<path fill="none" stroke="black" d="M149.49,-495C149.49,-495 29.98,-495 29.98,-495 23.98,-495 17.98,-489 17.98,-483 17.98,-483 17.98,-448.2 17.98,-448.2 17.98,-442.2 23.98,-436.2 29.98,-436.2 29.98,-436.2 149.49,-436.2 149.49,-436.2 155.49,-436.2 161.49,-442.2 161.49,-448.2 161.49,-448.2 161.49,-483 161.49,-483 161.49,-489 155.49,-495 149.49,-495" style=""/>
<text text-anchor="middle" x="89.74" y="-478.2" font-family="Helvetica,sans-Serif" font-size="14.00" style="">gini = 0.0</text>
<text text-anchor="middle" x="89.74" y="-461.4" font-family="Helvetica,sans-Serif" font-size="14.00" style="">samples = 63</text>
<text text-anchor="middle" x="89.74" y="-444.6" font-family="Helvetica,sans-Serif" font-size="14.00" style="">value = [101, 0, 0, 0]</text>
</g>
<!-- 8&#45;&gt;9 -->
<g id="edge9" class="edge" data-name="8-&gt;9">

<path fill="none" stroke="black" d="M167.79,-538.83C155.29,-527.27 141.52,-514.52 129.07,-503" style=""/>
<polygon fill="black" stroke="black" points="131.52,-500.5 121.8,-496.27 126.76,-505.64 131.52,-500.5" style=""/>
</g>
<!-- 10 -->
<g id="node11" class="node" pointer-events="visible" data-name="10">

<path fill="none" stroke="black" d="M302.71,-503.3C302.71,-503.3 190.76,-503.3 190.76,-503.3 184.76,-503.3 178.76,-497.3 178.76,-491.3 178.76,-491.3 178.76,-439.9 178.76,-439.9 178.76,-433.9 184.76,-427.9 190.76,-427.9 190.76,-427.9 302.71,-427.9 302.71,-427.9 308.71,-427.9 314.71,-433.9 314.71,-439.9 314.71,-439.9 314.71,-491.3 314.71,-491.3 314.71,-497.3 308.71,-503.3 302.71,-503.3" style=""/>
<text text-anchor="middle" x="246.74" y="-486.6" font-family="Helvetica,sans-Serif" font-size="14.00" style="">x[3] &lt;= 12859.0</text>
<text text-anchor="middle" x="246.74" y="-469.8" font-family="Helvetica,sans-Serif" font-size="14.00" style="">gini = 0.2</text>
<text text-anchor="middle" x="246.74" y="-453" font-family="Helvetica,sans-Serif" font-size="14.00" style="">samples = 22</text>
<text text-anchor="middle" x="246.74" y="-436.2" font-family="Helvetica,sans-Serif" font-size="14.00" style="">value = [25, 4, 0, 0]</text>
</g>
<!-- 8&#45;&gt;10 -->
<g id="edge10" class="edge" data-name="8-&gt;10">

<path fill="none" stroke="black" d="M220.94,-538.83C223.77,-530.91 226.79,-522.44 229.74,-514.19" style=""/>
<polygon fill="black" stroke="black" points="232.97,-515.55 233.04,-504.96 226.38,-513.2 232.97,-515.55" style=""/>
</g>
<!-- 11 -->
<g id="node12" class="node" pointer-events="visible" data-name="11">

<path fill="none" stroke="black" d="M198.71,-392.1C198.71,-392.1 86.76,-392.1 86.76,-392.1 80.76,-392.1 74.76,-386.1 74.76,-380.1 74.76,-380.1 74.76,-328.7 74.76,-328.7 74.76,-322.7 80.76,-316.7 86.76,-316.7 86.76,-316.7 198.71,-316.7 198.71,-316.7 204.71,-316.7 210.71,-322.7 210.71,-328.7 210.71,-328.7 210.71,-380.1 210.71,-380.1 210.71,-386.1 204.71,-392.1 198.71,-392.1" style=""/>
<text text-anchor="middle" x="142.74" y="-375.4" font-family="Helvetica,sans-Serif" font-size="14.00" style="">x[46] &lt;= 0.5</text>
<text text-anchor="middle" x="142.74" y="-358.6" font-family="Helvetica,sans-Serif" font-size="14.00" style="">gini = 0.1</text>
<text text-anchor="middle" x="142.74" y="-341.8" font-family="Helvetica,sans-Serif" font-size="14.00" style="">samples = 19</text>
<text text-anchor="middle" x="142.74" y="-325" font-family="Helvetica,sans-Serif" font-size="14.00" style="">value = [25, 1, 0, 0]</text>
</g>
<!-- 10&#45;&gt;11 -->
<g id="edge11" class="edge" data-name="10-&gt;11">

<path fill="none" stroke="black" d="M211.53,-427.63C203.22,-418.91 194.28,-409.53 185.68,-400.49" style=""/>
<polygon fill="black" stroke="black" points="188.38,-398.26 178.95,-393.43 183.32,-403.08 188.38,-398.26" style=""/>
</g>
<!-- 18 -->
<g id="node19" class="node" pointer-events="visible" data-name="18">

<path fill="none" stroke="black" d="M344.42,-383.8C344.42,-383.8 241.05,-383.8 241.05,-383.8 235.05,-383.8 229.05,-377.8 229.05,-371.8 229.05,-371.8 229.05,-337 229.05,-337 229.05,-331 235.05,-325 241.05,-325 241.05,-325 344.42,-325 344.42,-325 350.42,-325 356.42,-331 356.42,-337 356.42,-337 356.42,-371.8 356.42,-371.8 356.42,-377.8 350.42,-383.8 344.42,-383.8" style=""/>
<text text-anchor="middle" x="292.74" y="-367" font-family="Helvetica,sans-Serif" font-size="14.00" style="">gini = 0.0</text>
<text text-anchor="middle" x="292.74" y="-350.2" font-family="Helvetica,sans-Serif" font-size="14.00" style="">samples = 3</text>
<text text-anchor="middle" x="292.74" y="-333.4" font-family="Helvetica,sans-Serif" font-size="14.00" style="">value = [0, 3, 0, 0]</text>
</g>
<!-- 10&#45;&gt;18 -->
<g id="edge18" class="edge" data-name="10-&gt;18">

<path fill="none" stroke="black" d="M262.31,-427.63C266.81,-416.96 271.73,-405.28 276.27,-394.48" style=""/>
<polygon fill="black" stroke="black" points="279.42,-396.02 280.08,-385.44 272.97,-393.3 279.42,-396.02" style=""/>
</g>
<!-- 12 -->
<g id="node13" class="node" pointer-events="visible" data-name="12">

<path fill="none" stroke="black" d="M123.71,-272.6C123.71,-272.6 11.76,-272.6 11.76,-272.6 5.76,-272.6 -0.24,-266.6 -0.24,-260.6 -0.24,-260.6 -0.24,-225.8 -0.24,-225.8 -0.24,-219.8 5.76,-213.8 11.76,-213.8 11.76,-213.8 123.71,-213.8 123.71,-213.8 129.71,-213.8 135.71,-219.8 135.71,-225.8 135.71,-225.8 135.71,-260.6 135.71,-260.6 135.71,-266.6 129.71,-272.6 123.71,-272.6" style=""/>
<text text-anchor="middle" x="67.74" y="-255.8" font-family="Helvetica,sans-Serif" font-size="14.00" style="">gini = 0.0</text>
<text text-anchor="middle" x="67.74" y="-239" font-family="Helvetica,sans-Serif" font-size="14.00" style="">samples = 14</text>
<text text-anchor="middle" x="67.74" y="-222.2" font-family="Helvetica,sans-Serif" font-size="14.00" style="">value = [21, 0, 0, 0]</text>
</g>
<!-- 11&#45;&gt;12 -->
<g id="edge12" class="edge" data-name="11-&gt;12">

<path fill="none" stroke="black" d="M117.34,-316.43C109.78,-305.42 101.49,-293.35 93.88,-282.27" style=""/>
<polygon fill="black" stroke="black" points="96.81,-280.36 88.27,-274.09 91.04,-284.32 96.81,-280.36" style=""/>
</g>
<!-- 13 -->
<g id="node14" class="node" pointer-events="visible" data-name="13">

<path fill="none" stroke="black" d="M269.42,-280.9C269.42,-280.9 166.05,-280.9 166.05,-280.9 160.05,-280.9 154.05,-274.9 154.05,-268.9 154.05,-268.9 154.05,-217.5 154.05,-217.5 154.05,-211.5 160.05,-205.5 166.05,-205.5 166.05,-205.5 269.42,-205.5 269.42,-205.5 275.42,-205.5 281.42,-211.5 281.42,-217.5 281.42,-217.5 281.42,-268.9 281.42,-268.9 281.42,-274.9 275.42,-280.9 269.42,-280.9" style=""/>
<text text-anchor="middle" x="217.74" y="-264.2" font-family="Helvetica,sans-Serif" font-size="14.00" style="">x[55] &lt;= 3.0</text>
<text text-anchor="middle" x="217.74" y="-247.4" font-family="Helvetica,sans-Serif" font-size="14.00" style="">gini = 0.3</text>
<text text-anchor="middle" x="217.74" y="-230.6" font-family="Helvetica,sans-Serif" font-size="14.00" style="">samples = 5</text>
<text text-anchor="middle" x="217.74" y="-213.8" font-family="Helvetica,sans-Serif" font-size="14.00" style="">value = [4, 1, 0, 0]</text>
</g>
<!-- 11&#45;&gt;13 -->
<g id="edge13" class="edge" data-name="11-&gt;13">

<path fill="none" stroke="black" d="M168.13,-316.43C173.87,-308.07 180.04,-299.09 186,-290.4" style=""/>
<polygon fill="black" stroke="black" points="188.74,-292.6 191.51,-282.38 182.97,-288.64 188.74,-292.6" style=""/>
</g>
<!-- 14 -->
<g id="node15" class="node" pointer-events="visible" data-name="14">

<path fill="none" stroke="black" d="M196.42,-169.7C196.42,-169.7 93.05,-169.7 93.05,-169.7 87.05,-169.7 81.05,-163.7 81.05,-157.7 81.05,-157.7 81.05,-106.3 81.05,-106.3 81.05,-100.3 87.05,-94.3 93.05,-94.3 93.05,-94.3 196.42,-94.3 196.42,-94.3 202.42,-94.3 208.42,-100.3 208.42,-106.3 208.42,-106.3 208.42,-157.7 208.42,-157.7 208.42,-163.7 202.42,-169.7 196.42,-169.7" style=""/>
<text text-anchor="middle" x="144.74" y="-153" font-family="Helvetica,sans-Serif" font-size="14.00" style="">x[51] &lt;= 4.5</text>
<text text-anchor="middle" x="144.74" y="-136.2" font-family="Helvetica,sans-Serif" font-size="14.00" style="">gini = 0.5</text>
<text text-anchor="middle" x="144.74" y="-119.4" font-family="Helvetica,sans-Serif" font-size="14.00" style="">samples = 2</text>
<text text-anchor="middle" x="144.74" y="-102.6" font-family="Helvetica,sans-Serif" font-size="14.00" style="">value = [1, 1, 0, 0]</text>
</g>
<!-- 13&#45;&gt;14 -->
<g id="edge14" class="edge" data-name="13-&gt;14">

<path fill="none" stroke="black" d="M193.02,-205.23C187.49,-196.96 181.56,-188.08 175.81,-179.48" style=""/>
<polygon fill="black" stroke="black" points="178.73,-177.56 170.27,-171.19 172.91,-181.45 178.73,-177.56" style=""/>
</g>
<!-- 17 -->
<g id="node18" class="node" pointer-events="visible" data-name="17">

<path fill="none" stroke="black" d="M342.42,-161.4C342.42,-161.4 239.05,-161.4 239.05,-161.4 233.05,-161.4 227.05,-155.4 227.05,-149.4 227.05,-149.4 227.05,-114.6 227.05,-114.6 227.05,-108.6 233.05,-102.6 239.05,-102.6 239.05,-102.6 342.42,-102.6 342.42,-102.6 348.42,-102.6 354.42,-108.6 354.42,-114.6 354.42,-114.6 354.42,-149.4 354.42,-149.4 354.42,-155.4 348.42,-161.4 342.42,-161.4" style=""/>
<text text-anchor="middle" x="290.74" y="-144.6" font-family="Helvetica,sans-Serif" font-size="14.00" style="">gini = 0.0</text>
<text text-anchor="middle" x="290.74" y="-127.8" font-family="Helvetica,sans-Serif" font-size="14.00" style="">samples = 3</text>
<text text-anchor="middle" x="290.74" y="-111" font-family="Helvetica,sans-Serif" font-size="14.00" style="">value = [3, 0, 0, 0]</text>
</g>
<!-- 13&#45;&gt;17 -->
<g id="edge17" class="edge" data-name="13-&gt;17">

<path fill="none" stroke="black" d="M242.45,-205.23C249.81,-194.22 257.88,-182.15 265.29,-171.07" style=""/>
<polygon fill="black" stroke="black" points="268.1,-173.16 270.74,-162.9 262.28,-169.27 268.1,-173.16" style=""/>
</g>
<!-- 15 -->
<g id="node16" class="node" pointer-events="visible" data-name="15">

<path fill="none" stroke="black" d="M123.42,-58.6C123.42,-58.6 20.05,-58.6 20.05,-58.6 14.05,-58.6 8.05,-52.6 8.05,-46.6 8.05,-46.6 8.05,-11.8 8.05,-11.8 8.05,-5.8 14.05,0.2 20.05,0.2 20.05,0.2 123.42,0.2 123.42,0.2 129.42,0.2 135.42,-5.8 135.42,-11.8 135.42,-11.8 135.42,-46.6 135.42,-46.6 135.42,-52.6 129.42,-58.6 123.42,-58.6" style=""/>
<text text-anchor="middle" x="71.74" y="-41.8" font-family="Helvetica,sans-Serif" font-size="14.00" style="">gini = 0.0</text>
<text text-anchor="middle" x="71.74" y="-25" font-family="Helvetica,sans-Serif" font-size="14.00" style="">samples = 1</text>
<text text-anchor="middle" x="71.74" y="-8.2" font-family="Helvetica,sans-Serif" font-size="14.00" style="">value = [0, 1, 0, 0]</text>
</g>
<!-- 14&#45;&gt;15 -->
<g id="edge15" class="edge" data-name="14-&gt;15">

<path fill="none" stroke="black" d="M117.97,-94.04C111.88,-85.63 105.4,-76.68 99.28,-68.23" style=""/>
<polygon fill="black" stroke="black" points="102.14,-66.22 93.44,-60.17 96.47,-70.33 102.14,-66.22" style=""/>
</g>
<!-- 16 -->
<g id="node17" class="node" pointer-events="visible" data-name="16">

<path fill="none" stroke="black" d="M269.42,-58.6C269.42,-58.6 166.05,-58.6 166.05,-58.6 160.05,-58.6 154.05,-52.6 154.05,-46.6 154.05,-46.6 154.05,-11.8 154.05,-11.8 154.05,-5.8 160.05,0.2 166.05,0.2 166.05,0.2 269.42,0.2 269.42,0.2 275.42,0.2 281.42,-5.8 281.42,-11.8 281.42,-11.8 281.42,-46.6 281.42,-46.6 281.42,-52.6 275.42,-58.6 269.42,-58.6" style=""/>
<text text-anchor="middle" x="217.74" y="-41.8" font-family="Helvetica,sans-Serif" font-size="14.00" style="">gini = 0.0</text>
<text text-anchor="middle" x="217.74" y="-25" font-family="Helvetica,sans-Serif" font-size="14.00" style="">samples = 1</text>
<text text-anchor="middle" x="217.74" y="-8.2" font-family="Helvetica,sans-Serif" font-size="14.00" style="">value = [1, 0, 0, 0]</text>
</g>
<!-- 14&#45;&gt;16 -->
<g id="edge16" class="edge" data-name="14-&gt;16">

<path fill="none" stroke="black" d="M171.5,-94.04C177.59,-85.63 184.07,-76.68 190.2,-68.23" style=""/>
<polygon fill="black" stroke="black" points="193,-70.33 196.03,-60.17 187.33,-66.22 193,-70.33" style=""/>
</g>
<!-- 22 -->
<g id="node23" class="node" pointer-events="visible" data-name="22">

<path fill="none" stroke="black" d="M744.28,-836.9C744.28,-836.9 617.19,-836.9 617.19,-836.9 611.19,-836.9 605.19,-830.9 605.19,-824.9 605.19,-824.9 605.19,-773.5 605.19,-773.5 605.19,-767.5 611.19,-761.5 617.19,-761.5 617.19,-761.5 744.28,-761.5 744.28,-761.5 750.28,-761.5 756.28,-767.5 756.28,-773.5 756.28,-773.5 756.28,-824.9 756.28,-824.9 756.28,-830.9 750.28,-836.9 744.28,-836.9" style=""/>
<text text-anchor="middle" x="680.74" y="-820.2" font-family="Helvetica,sans-Serif" font-size="14.00" style="">x[12] &lt;= 1302.5</text>
<text text-anchor="middle" x="680.74" y="-803.4" font-family="Helvetica,sans-Serif" font-size="14.00" style="">gini = 0.1</text>
<text text-anchor="middle" x="680.74" y="-786.6" font-family="Helvetica,sans-Serif" font-size="14.00" style="">samples = 125</text>
<text text-anchor="middle" x="680.74" y="-769.8" font-family="Helvetica,sans-Serif" font-size="14.00" style="">value = [182, 11, 0, 0]</text>
</g>
<!-- 21&#45;&gt;22 -->
<g id="edge22" class="edge" data-name="21-&gt;22">

<path fill="none" stroke="black" d="M725.05,-872.43C719.98,-864.16 714.53,-855.28 709.25,-846.68" style=""/>
<polygon fill="black" stroke="black" points="712.4,-845.12 704.19,-838.42 706.43,-848.78 712.4,-845.12" style=""/>
</g>
<!-- 33 -->
<g id="node34" class="node" pointer-events="visible" data-name="33">

<path fill="none" stroke="black" d="M889.42,-828.6C889.42,-828.6 786.05,-828.6 786.05,-828.6 780.05,-828.6 774.05,-822.6 774.05,-816.6 774.05,-816.6 774.05,-781.8 774.05,-781.8 774.05,-775.8 780.05,-769.8 786.05,-769.8 786.05,-769.8 889.42,-769.8 889.42,-769.8 895.42,-769.8 901.42,-775.8 901.42,-781.8 901.42,-781.8 901.42,-816.6 901.42,-816.6 901.42,-822.6 895.42,-828.6 889.42,-828.6" style=""/>
<text text-anchor="middle" x="837.74" y="-811.8" font-family="Helvetica,sans-Serif" font-size="14.00" style="">gini = 0.0</text>
<text text-anchor="middle" x="837.74" y="-795" font-family="Helvetica,sans-Serif" font-size="14.00" style="">samples = 1</text>
<text text-anchor="middle" x="837.74" y="-778.2" font-family="Helvetica,sans-Serif" font-size="14.00" style="">value = [0, 3, 0, 0]</text>
</g>
<!-- 21&#45;&gt;33 -->
<g id="edge33" class="edge" data-name="21-&gt;33">

<path fill="none" stroke="black" d="M778.21,-872.43C787.46,-861.2 797.63,-848.86 806.91,-837.6" style=""/>
<polygon fill="black" stroke="black" points="809.5,-839.96 813.16,-830.01 804.1,-835.51 809.5,-839.96" style=""/>
</g>
<!-- 23 -->
<g id="node24" class="node" pointer-events="visible" data-name="23">

<path fill="none" stroke="black" d="M725.49,-725.7C725.49,-725.7 605.98,-725.7 605.98,-725.7 599.98,-725.7 593.98,-719.7 593.98,-713.7 593.98,-713.7 593.98,-662.3 593.98,-662.3 593.98,-656.3 599.98,-650.3 605.98,-650.3 605.98,-650.3 725.49,-650.3 725.49,-650.3 731.49,-650.3 737.49,-656.3 737.49,-662.3 737.49,-662.3 737.49,-713.7 737.49,-713.7 737.49,-719.7 731.49,-725.7 725.49,-725.7" style=""/>
<text text-anchor="middle" x="665.74" y="-709" font-family="Helvetica,sans-Serif" font-size="14.00" style="">x[2] &lt;= 118.5</text>
<text text-anchor="middle" x="665.74" y="-692.2" font-family="Helvetica,sans-Serif" font-size="14.00" style="">gini = 0.0</text>
<text text-anchor="middle" x="665.74" y="-675.4" font-family="Helvetica,sans-Serif" font-size="14.00" style="">samples = 105</text>
<text text-anchor="middle" x="665.74" y="-658.6" font-family="Helvetica,sans-Serif" font-size="14.00" style="">value = [162, 2, 0, 0]</text>
</g>
<!-- 22&#45;&gt;23 -->
<g id="edge23" class="edge" data-name="22-&gt;23">

<path fill="none" stroke="black" d="M675.66,-761.23C674.59,-753.49 673.46,-745.22 672.35,-737.15" style=""/>
<polygon fill="black" stroke="black" points="675.84,-736.86 671.01,-727.43 668.91,-737.81 675.84,-736.86" style=""/>
</g>
<!-- 30 -->
<g id="node31" class="node" pointer-events="visible" data-name="30">

<path fill="none" stroke="black" d="M878.71,-725.7C878.71,-725.7 766.76,-725.7 766.76,-725.7 760.76,-725.7 754.76,-719.7 754.76,-713.7 754.76,-713.7 754.76,-662.3 754.76,-662.3 754.76,-656.3 760.76,-650.3 766.76,-650.3 766.76,-650.3 878.71,-650.3 878.71,-650.3 884.71,-650.3 890.71,-656.3 890.71,-662.3 890.71,-662.3 890.71,-713.7 890.71,-713.7 890.71,-719.7 884.71,-725.7 878.71,-725.7" style=""/>
<text text-anchor="middle" x="822.74" y="-709" font-family="Helvetica,sans-Serif" font-size="14.00" style="">x[37] &lt;= 201450.0</text>
<text text-anchor="middle" x="822.74" y="-692.2" font-family="Helvetica,sans-Serif" font-size="14.00" style="">gini = 0.4</text>
<text text-anchor="middle" x="822.74" y="-675.4" font-family="Helvetica,sans-Serif" font-size="14.00" style="">samples = 20</text>
<text text-anchor="middle" x="822.74" y="-658.6" font-family="Helvetica,sans-Serif" font-size="14.00" style="">value = [20, 9, 0, 0]</text>
</g>
<!-- 22&#45;&gt;30 -->
<g id="edge30" class="edge" data-name="22-&gt;30">

<path fill="none" stroke="black" d="M728.81,-761.23C740.72,-752.07 753.6,-742.17 765.89,-732.72" style=""/>
<polygon fill="black" stroke="black" points="767.72,-735.73 773.51,-726.85 763.45,-730.18 767.72,-735.73" style=""/>
</g>
<!-- 24 -->
<g id="node25" class="node" pointer-events="visible" data-name="24">

<path fill="none" stroke="black" d="M576.49,-614.5C576.49,-614.5 456.98,-614.5 456.98,-614.5 450.98,-614.5 444.98,-608.5 444.98,-602.5 444.98,-602.5 444.98,-551.1 444.98,-551.1 444.98,-545.1 450.98,-539.1 456.98,-539.1 456.98,-539.1 576.49,-539.1 576.49,-539.1 582.49,-539.1 588.49,-545.1 588.49,-551.1 588.49,-551.1 588.49,-602.5 588.49,-602.5 588.49,-608.5 582.49,-614.5 576.49,-614.5" style=""/>
<text text-anchor="middle" x="516.74" y="-597.8" font-family="Helvetica,sans-Serif" font-size="14.00" style="">x[14] &lt;= 848.5</text>
<text text-anchor="middle" x="516.74" y="-581" font-family="Helvetica,sans-Serif" font-size="14.00" style="">gini = 0.0</text>
<text text-anchor="middle" x="516.74" y="-564.2" font-family="Helvetica,sans-Serif" font-size="14.00" style="">samples = 104</text>
<text text-anchor="middle" x="516.74" y="-547.4" font-family="Helvetica,sans-Serif" font-size="14.00" style="">value = [162, 1, 0, 0]</text>
</g>
<!-- 23&#45;&gt;24 -->
<g id="edge24" class="edge" data-name="23-&gt;24">

<path fill="none" stroke="black" d="M615.29,-650.03C602.86,-640.92 589.43,-631.07 576.59,-621.67" style=""/>
<polygon fill="black" stroke="black" points="578.74,-618.9 568.6,-615.81 574.6,-624.55 578.74,-618.9" style=""/>
</g>
<!-- 29 -->
<g id="node30" class="node" pointer-events="visible" data-name="29">

<path fill="none" stroke="black" d="M721.42,-606.2C721.42,-606.2 618.05,-606.2 618.05,-606.2 612.05,-606.2 606.05,-600.2 606.05,-594.2 606.05,-594.2 606.05,-559.4 606.05,-559.4 606.05,-553.4 612.05,-547.4 618.05,-547.4 618.05,-547.4 721.42,-547.4 721.42,-547.4 727.42,-547.4 733.42,-553.4 733.42,-559.4 733.42,-559.4 733.42,-594.2 733.42,-594.2 733.42,-600.2 727.42,-606.2 721.42,-606.2" style=""/>
<text text-anchor="middle" x="669.74" y="-589.4" font-family="Helvetica,sans-Serif" font-size="14.00" style="">gini = 0.0</text>
<text text-anchor="middle" x="669.74" y="-572.6" font-family="Helvetica,sans-Serif" font-size="14.00" style="">samples = 1</text>
<text text-anchor="middle" x="669.74" y="-555.8" font-family="Helvetica,sans-Serif" font-size="14.00" style="">value = [0, 1, 0, 0]</text>
</g>
<!-- 23&#45;&gt;29 -->
<g id="edge29" class="edge" data-name="23-&gt;29">

<path fill="none" stroke="black" d="M667.09,-650.03C667.47,-639.69 667.88,-628.41 668.27,-617.89" style=""/>
<polygon fill="black" stroke="black" points="671.76,-618.08 668.63,-607.96 664.77,-617.82 671.76,-618.08" style=""/>
</g>
<!-- 25 -->
<g id="node26" class="node" pointer-events="visible" data-name="25">

<path fill="none" stroke="black" d="M537.49,-495C537.49,-495 417.98,-495 417.98,-495 411.98,-495 405.98,-489 405.98,-483 405.98,-483 405.98,-448.2 405.98,-448.2 405.98,-442.2 411.98,-436.2 417.98,-436.2 417.98,-436.2 537.49,-436.2 537.49,-436.2 543.49,-436.2 549.49,-442.2 549.49,-448.2 549.49,-448.2 549.49,-483 549.49,-483 549.49,-489 543.49,-495 537.49,-495" style=""/>
<text text-anchor="middle" x="477.74" y="-478.2" font-family="Helvetica,sans-Serif" font-size="14.00" style="">gini = 0.0</text>
<text text-anchor="middle" x="477.74" y="-461.4" font-family="Helvetica,sans-Serif" font-size="14.00" style="">samples = 102</text>
<text text-anchor="middle" x="477.74" y="-444.6" font-family="Helvetica,sans-Serif" font-size="14.00" style="">value = [161, 0, 0, 0]</text>
</g>
<!-- 24&#45;&gt;25 -->
<g id="edge25" class="edge" data-name="24-&gt;25">

<path fill="none" stroke="black" d="M503.53,-538.83C499.76,-528.27 495.64,-516.72 491.81,-506.02" style=""/>
<polygon fill="black" stroke="black" points="495.14,-504.91 488.48,-496.67 488.54,-507.27 495.14,-504.91" style=""/>
</g>
<!-- 26 -->
<g id="node27" class="node" pointer-events="visible" data-name="26">

<path fill="none" stroke="black" d="M682.42,-503.3C682.42,-503.3 579.05,-503.3 579.05,-503.3 573.05,-503.3 567.05,-497.3 567.05,-491.3 567.05,-491.3 567.05,-439.9 567.05,-439.9 567.05,-433.9 573.05,-427.9 579.05,-427.9 579.05,-427.9 682.42,-427.9 682.42,-427.9 688.42,-427.9 694.42,-433.9 694.42,-439.9 694.42,-439.9 694.42,-491.3 694.42,-491.3 694.42,-497.3 688.42,-503.3 682.42,-503.3" style=""/>
<text text-anchor="middle" x="630.74" y="-486.6" font-family="Helvetica,sans-Serif" font-size="14.00" style="">x[78] &lt;= 2.0</text>
<text text-anchor="middle" x="630.74" y="-469.8" font-family="Helvetica,sans-Serif" font-size="14.00" style="">gini = 0.5</text>
<text text-anchor="middle" x="630.74" y="-453" font-family="Helvetica,sans-Serif" font-size="14.00" style="">samples = 2</text>
<text text-anchor="middle" x="630.74" y="-436.2" font-family="Helvetica,sans-Serif" font-size="14.00" style="">value = [1, 1, 0, 0]</text>
</g>
<!-- 24&#45;&gt;26 -->
<g id="edge26" class="edge" data-name="24-&gt;26">

<path fill="none" stroke="black" d="M555.33,-538.83C564.52,-530.02 574.43,-520.53 583.95,-511.42" style=""/>
<polygon fill="black" stroke="black" points="586.29,-514.02 591.09,-504.58 581.44,-508.97 586.29,-514.02" style=""/>
</g>
<!-- 27 -->
<g id="node28" class="node" pointer-events="visible" data-name="27">

<path fill="none" stroke="black" d="M609.42,-383.8C609.42,-383.8 506.05,-383.8 506.05,-383.8 500.05,-383.8 494.05,-377.8 494.05,-371.8 494.05,-371.8 494.05,-337 494.05,-337 494.05,-331 500.05,-325 506.05,-325 506.05,-325 609.42,-325 609.42,-325 615.42,-325 621.42,-331 621.42,-337 621.42,-337 621.42,-371.8 621.42,-371.8 621.42,-377.8 615.42,-383.8 609.42,-383.8" style=""/>
<text text-anchor="middle" x="557.74" y="-367" font-family="Helvetica,sans-Serif" font-size="14.00" style="">gini = 0.0</text>
<text text-anchor="middle" x="557.74" y="-350.2" font-family="Helvetica,sans-Serif" font-size="14.00" style="">samples = 1</text>
<text text-anchor="middle" x="557.74" y="-333.4" font-family="Helvetica,sans-Serif" font-size="14.00" style="">value = [0, 1, 0, 0]</text>
</g>
<!-- 26&#45;&gt;27 -->
<g id="edge27" class="edge" data-name="26-&gt;27">

<path fill="none" stroke="black" d="M606.02,-427.63C598.66,-416.62 590.59,-404.55 583.19,-393.47" style=""/>
<polygon fill="black" stroke="black" points="586.19,-391.67 577.73,-385.3 580.37,-395.56 586.19,-391.67" style=""/>
</g>
<!-- 28 -->
<g id="node29" class="node" pointer-events="visible" data-name="28">

<path fill="none" stroke="black" d="M755.42,-383.8C755.42,-383.8 652.05,-383.8 652.05,-383.8 646.05,-383.8 640.05,-377.8 640.05,-371.8 640.05,-371.8 640.05,-337 640.05,-337 640.05,-331 646.05,-325 652.05,-325 652.05,-325 755.42,-325 755.42,-325 761.42,-325 767.42,-331 767.42,-337 767.42,-337 767.42,-371.8 767.42,-371.8 767.42,-377.8 761.42,-383.8 755.42,-383.8" style=""/>
<text text-anchor="middle" x="703.74" y="-367" font-family="Helvetica,sans-Serif" font-size="14.00" style="">gini = 0.0</text>
<text text-anchor="middle" x="703.74" y="-350.2" font-family="Helvetica,sans-Serif" font-size="14.00" style="">samples = 1</text>
<text text-anchor="middle" x="703.74" y="-333.4" font-family="Helvetica,sans-Serif" font-size="14.00" style="">value = [1, 0, 0, 0]</text>
</g>
<!-- 26&#45;&gt;28 -->
<g id="edge28" class="edge" data-name="26-&gt;28">

<path fill="none" stroke="black" d="M655.45,-427.63C662.81,-416.62 670.88,-404.55 678.29,-393.47" style=""/>
<polygon fill="black" stroke="black" points="681.1,-395.56 683.74,-385.3 675.28,-391.67 681.1,-395.56" style=""/>
</g>
<!-- 31 -->
<g id="node32" class="node" pointer-events="visible" data-name="31">

<path fill="none" stroke="black" d="M877.71,-606.2C877.71,-606.2 765.76,-606.2 765.76,-606.2 759.76,-606.2 753.76,-600.2 753.76,-594.2 753.76,-594.2 753.76,-559.4 753.76,-559.4 753.76,-553.4 759.76,-547.4 765.76,-547.4 765.76,-547.4 877.71,-547.4 877.71,-547.4 883.71,-547.4 889.71,-553.4 889.71,-559.4 889.71,-559.4 889.71,-594.2 889.71,-594.2 889.71,-600.2 883.71,-606.2 877.71,-606.2" style=""/>
<text text-anchor="middle" x="821.74" y="-589.4" font-family="Helvetica,sans-Serif" font-size="14.00" style="">gini = 0.0</text>
<text text-anchor="middle" x="821.74" y="-572.6" font-family="Helvetica,sans-Serif" font-size="14.00" style="">samples = 12</text>
<text text-anchor="middle" x="821.74" y="-555.8" font-family="Helvetica,sans-Serif" font-size="14.00" style="">value = [20, 0, 0, 0]</text>
</g>
<!-- 30&#45;&gt;31 -->
<g id="edge31" class="edge" data-name="30-&gt;31">

<path fill="none" stroke="black" d="M822.4,-650.03C822.3,-639.69 822.2,-628.41 822.1,-617.89" style=""/>
<polygon fill="black" stroke="black" points="825.6,-617.93 822.01,-607.96 818.6,-617.99 825.6,-617.93" style=""/>
</g>
<!-- 32 -->
<g id="node33" class="node" pointer-events="visible" data-name="32">

<path fill="none" stroke="black" d="M1023.42,-606.2C1023.42,-606.2 920.05,-606.2 920.05,-606.2 914.05,-606.2 908.05,-600.2 908.05,-594.2 908.05,-594.2 908.05,-559.4 908.05,-559.4 908.05,-553.4 914.05,-547.4 920.05,-547.4 920.05,-547.4 1023.42,-547.4 1023.42,-547.4 1029.42,-547.4 1035.42,-553.4 1035.42,-559.4 1035.42,-559.4 1035.42,-594.2 1035.42,-594.2 1035.42,-600.2 1029.42,-606.2 1023.42,-606.2" style=""/>
<text text-anchor="middle" x="971.74" y="-589.4" font-family="Helvetica,sans-Serif" font-size="14.00" style="">gini = 0.0</text>
<text text-anchor="middle" x="971.74" y="-572.6" font-family="Helvetica,sans-Serif" font-size="14.00" style="">samples = 8</text>
<text text-anchor="middle" x="971.74" y="-555.8" font-family="Helvetica,sans-Serif" font-size="14.00" style="">value = [0, 9, 0, 0]</text>
</g>
<!-- 30&#45;&gt;32 -->
<g id="edge32" class="edge" data-name="30-&gt;32">

<path fill="none" stroke="black" d="M873.18,-650.03C889.41,-638.13 907.35,-624.99 923.43,-613.21" style=""/>
<polygon fill="black" stroke="black" points="925.43,-616.08 931.43,-607.34 921.29,-610.43 925.43,-616.08" style=""/>
</g>
<!-- 35 -->
<g id="node36" class="node" pointer-events="visible" data-name="35">

<path fill="none" stroke="black" d="M1004.71,-939.8C1004.71,-939.8 892.76,-939.8 892.76,-939.8 886.76,-939.8 880.76,-933.8 880.76,-927.8 880.76,-927.8 880.76,-893 880.76,-893 880.76,-887 886.76,-881 892.76,-881 892.76,-881 1004.71,-881 1004.71,-881 1010.71,-881 1016.71,-887 1016.71,-893 1016.71,-893 1016.71,-927.8 1016.71,-927.8 1016.71,-933.8 1010.71,-939.8 1004.71,-939.8" style=""/>
<text text-anchor="middle" x="948.74" y="-923" font-family="Helvetica,sans-Serif" font-size="14.00" style="">gini = 0.0</text>
<text text-anchor="middle" x="948.74" y="-906.2" font-family="Helvetica,sans-Serif" font-size="14.00" style="">samples = 10</text>
<text text-anchor="middle" x="948.74" y="-889.4" font-family="Helvetica,sans-Serif" font-size="14.00" style="">value = [0, 17, 0, 0]</text>
</g>
<!-- 34&#45;&gt;35 -->
<g id="edge35" class="edge" data-name="34-&gt;35">

<path fill="none" stroke="black" d="M957.33,-983.63C956.09,-973.18 954.73,-961.76 953.47,-951.16" style=""/>
<polygon fill="black" stroke="black" points="956.98,-951.07 952.33,-941.55 950.03,-951.89 956.98,-951.07" style=""/>
</g>
<!-- 36 -->
<g id="node37" class="node" pointer-events="visible" data-name="36">

<path fill="none" stroke="black" d="M1165.49,-948.1C1165.49,-948.1 1045.98,-948.1 1045.98,-948.1 1039.98,-948.1 1033.98,-942.1 1033.98,-936.1 1033.98,-936.1 1033.98,-884.7 1033.98,-884.7 1033.98,-878.7 1039.98,-872.7 1045.98,-872.7 1045.98,-872.7 1165.49,-872.7 1165.49,-872.7 1171.49,-872.7 1177.49,-878.7 1177.49,-884.7 1177.49,-884.7 1177.49,-936.1 1177.49,-936.1 1177.49,-942.1 1171.49,-948.1 1165.49,-948.1" style=""/>
<text text-anchor="middle" x="1105.74" y="-931.4" font-family="Helvetica,sans-Serif" font-size="14.00" style="">x[3] &lt;= 12502.5</text>
<text text-anchor="middle" x="1105.74" y="-914.6" font-family="Helvetica,sans-Serif" font-size="14.00" style="">gini = 0.5</text>
<text text-anchor="middle" x="1105.74" y="-897.8" font-family="Helvetica,sans-Serif" font-size="14.00" style="">samples = 29</text>
<text text-anchor="middle" x="1105.74" y="-881" font-family="Helvetica,sans-Serif" font-size="14.00" style="">value = [24, 17, 0, 0]</text>
</g>
<!-- 34&#45;&gt;36 -->
<g id="edge36" class="edge" data-name="34-&gt;36">

<path fill="none" stroke="black" d="M1010.49,-983.63C1022.57,-974.47 1035.63,-964.57 1048.09,-955.12" style=""/>
<polygon fill="black" stroke="black" points="1049.98,-958.08 1055.83,-949.25 1045.75,-952.5 1049.98,-958.08" style=""/>
</g>
<!-- 37 -->
<g id="node38" class="node" pointer-events="visible" data-name="37">

<path fill="none" stroke="black" d="M1050.71,-836.9C1050.71,-836.9 938.76,-836.9 938.76,-836.9 932.76,-836.9 926.76,-830.9 926.76,-824.9 926.76,-824.9 926.76,-773.5 926.76,-773.5 926.76,-767.5 932.76,-761.5 938.76,-761.5 938.76,-761.5 1050.71,-761.5 1050.71,-761.5 1056.71,-761.5 1062.71,-767.5 1062.71,-773.5 1062.71,-773.5 1062.71,-824.9 1062.71,-824.9 1062.71,-830.9 1056.71,-836.9 1050.71,-836.9" style=""/>
<text text-anchor="middle" x="994.74" y="-820.2" font-family="Helvetica,sans-Serif" font-size="14.00" style="">x[16] &lt;= 1926.5</text>
<text text-anchor="middle" x="994.74" y="-803.4" font-family="Helvetica,sans-Serif" font-size="14.00" style="">gini = 0.4</text>
<text text-anchor="middle" x="994.74" y="-786.6" font-family="Helvetica,sans-Serif" font-size="14.00" style="">samples = 22</text>
<text text-anchor="middle" x="994.74" y="-769.8" font-family="Helvetica,sans-Serif" font-size="14.00" style="">value = [24, 8, 0, 0]</text>
</g>
<!-- 36&#45;&gt;37 -->
<g id="edge37" class="edge" data-name="36-&gt;37">

<path fill="none" stroke="black" d="M1068.16,-872.43C1059.21,-863.62 1049.56,-854.13 1040.29,-845.02" style=""/>
<polygon fill="black" stroke="black" points="1042.94,-842.71 1033.36,-838.19 1038.03,-847.7 1042.94,-842.71" style=""/>
</g>
<!-- 42 -->
<g id="node43" class="node" pointer-events="visible" data-name="42">

<path fill="none" stroke="black" d="M1196.42,-828.6C1196.42,-828.6 1093.05,-828.6 1093.05,-828.6 1087.05,-828.6 1081.05,-822.6 1081.05,-816.6 1081.05,-816.6 1081.05,-781.8 1081.05,-781.8 1081.05,-775.8 1087.05,-769.8 1093.05,-769.8 1093.05,-769.8 1196.42,-769.8 1196.42,-769.8 1202.42,-769.8 1208.42,-775.8 1208.42,-781.8 1208.42,-781.8 1208.42,-816.6 1208.42,-816.6 1208.42,-822.6 1202.42,-828.6 1196.42,-828.6" style=""/>
<text text-anchor="middle" x="1144.74" y="-811.8" font-family="Helvetica,sans-Serif" font-size="14.00" style="">gini = 0.0</text>
<text text-anchor="middle" x="1144.74" y="-795" font-family="Helvetica,sans-Serif" font-size="14.00" style="">samples = 7</text>
<text text-anchor="middle" x="1144.74" y="-778.2" font-family="Helvetica,sans-Serif" font-size="14.00" style="">value = [0, 9, 0, 0]</text>
</g>
<!-- 36&#45;&gt;42 -->
<g id="edge42" class="edge" data-name="36-&gt;42">

<path fill="none" stroke="black" d="M1118.94,-872.43C1122.71,-861.87 1126.84,-850.32 1130.66,-839.62" style=""/>
<polygon fill="black" stroke="black" points="1133.93,-840.87 1134,-830.27 1127.34,-838.51 1133.93,-840.87" style=""/>
</g>
<!-- 38 -->
<g id="node39" class="node" pointer-events="visible" data-name="38">

<path fill="none" stroke="black" d="M1031.71,-717.4C1031.71,-717.4 919.76,-717.4 919.76,-717.4 913.76,-717.4 907.76,-711.4 907.76,-705.4 907.76,-705.4 907.76,-670.6 907.76,-670.6 907.76,-664.6 913.76,-658.6 919.76,-658.6 919.76,-658.6 1031.71,-658.6 1031.71,-658.6 1037.71,-658.6 1043.71,-664.6 1043.71,-670.6 1043.71,-670.6 1043.71,-705.4 1043.71,-705.4 1043.71,-711.4 1037.71,-717.4 1031.71,-717.4" style=""/>
<text text-anchor="middle" x="975.74" y="-700.6" font-family="Helvetica,sans-Serif" font-size="14.00" style="">gini = 0.0</text>
<text text-anchor="middle" x="975.74" y="-683.8" font-family="Helvetica,sans-Serif" font-size="14.00" style="">samples = 15</text>
<text text-anchor="middle" x="975.74" y="-667" font-family="Helvetica,sans-Serif" font-size="14.00" style="">value = [22, 0, 0, 0]</text>
</g>
<!-- 37&#45;&gt;38 -->
<g id="edge38" class="edge" data-name="37-&gt;38">

<path fill="none" stroke="black" d="M988.3,-761.23C986.48,-750.78 984.5,-739.36 982.65,-728.76" style=""/>
<polygon fill="black" stroke="black" points="986.14,-728.39 980.98,-719.14 979.25,-729.59 986.14,-728.39" style=""/>
</g>
<!-- 39 -->
<g id="node40" class="node" pointer-events="visible" data-name="39">

<path fill="none" stroke="black" d="M1178.11,-725.7C1178.11,-725.7 1073.36,-725.7 1073.36,-725.7 1067.36,-725.7 1061.36,-719.7 1061.36,-713.7 1061.36,-713.7 1061.36,-662.3 1061.36,-662.3 1061.36,-656.3 1067.36,-650.3 1073.36,-650.3 1073.36,-650.3 1178.11,-650.3 1178.11,-650.3 1184.11,-650.3 1190.11,-656.3 1190.11,-662.3 1190.11,-662.3 1190.11,-713.7 1190.11,-713.7 1190.11,-719.7 1184.11,-725.7 1178.11,-725.7" style=""/>
<text text-anchor="middle" x="1125.74" y="-709" font-family="Helvetica,sans-Serif" font-size="14.00" style="">x[37] &lt;= 197500.0</text>
<text text-anchor="middle" x="1125.74" y="-692.2" font-family="Helvetica,sans-Serif" font-size="14.00" style="">gini = 0.3</text>
<text text-anchor="middle" x="1125.74" y="-675.4" font-family="Helvetica,sans-Serif" font-size="14.00" style="">samples = 7</text>
<text text-anchor="middle" x="1125.74" y="-658.6" font-family="Helvetica,sans-Serif" font-size="14.00" style="">value = [2, 8, 0, 0]</text>
</g>
<!-- 37&#45;&gt;39 -->
<g id="edge39" class="edge" data-name="37-&gt;39">

<path fill="none" stroke="black" d="M1039.09,-761.23C1049.86,-752.25 1061.5,-742.55 1072.63,-733.27" style=""/>
<polygon fill="black" stroke="black" points="1074.83,-735.99 1080.27,-726.9 1070.35,-730.62 1074.83,-735.99" style=""/>
</g>
<!-- 40 -->
<g id="node41" class="node" pointer-events="visible" data-name="40">

<path fill="none" stroke="black" d="M1173.42,-606.2C1173.42,-606.2 1070.05,-606.2 1070.05,-606.2 1064.05,-606.2 1058.05,-600.2 1058.05,-594.2 1058.05,-594.2 1058.05,-559.4 1058.05,-559.4 1058.05,-553.4 1064.05,-547.4 1070.05,-547.4 1070.05,-547.4 1173.42,-547.4 1173.42,-547.4 1179.42,-547.4 1185.42,-553.4 1185.42,-559.4 1185.42,-559.4 1185.42,-594.2 1185.42,-594.2 1185.42,-600.2 1179.42,-606.2 1173.42,-606.2" style=""/>
<text text-anchor="middle" x="1121.74" y="-589.4" font-family="Helvetica,sans-Serif" font-size="14.00" style="">gini = 0.0</text>
<text text-anchor="middle" x="1121.74" y="-572.6" font-family="Helvetica,sans-Serif" font-size="14.00" style="">samples = 2</text>
<text text-anchor="middle" x="1121.74" y="-555.8" font-family="Helvetica,sans-Serif" font-size="14.00" style="">value = [2, 0, 0, 0]</text>
</g>
<!-- 39&#45;&gt;40 -->
<g id="edge40" class="edge" data-name="39-&gt;40">

<path fill="none" stroke="black" d="M1124.38,-650.03C1124,-639.69 1123.59,-628.41 1123.2,-617.89" style=""/>
<polygon fill="black" stroke="black" points="1126.7,-617.82 1122.84,-607.96 1119.71,-618.08 1126.7,-617.82" style=""/>
</g>
<!-- 41 -->
<g id="node42" class="node" pointer-events="visible" data-name="41">

<path fill="none" stroke="black" d="M1319.42,-606.2C1319.42,-606.2 1216.05,-606.2 1216.05,-606.2 1210.05,-606.2 1204.05,-600.2 1204.05,-594.2 1204.05,-594.2 1204.05,-559.4 1204.05,-559.4 1204.05,-553.4 1210.05,-547.4 1216.05,-547.4 1216.05,-547.4 1319.42,-547.4 1319.42,-547.4 1325.42,-547.4 1331.42,-553.4 1331.42,-559.4 1331.42,-559.4 1331.42,-594.2 1331.42,-594.2 1331.42,-600.2 1325.42,-606.2 1319.42,-606.2" style=""/>
<text text-anchor="middle" x="1267.74" y="-589.4" font-family="Helvetica,sans-Serif" font-size="14.00" style="">gini = 0.0</text>
<text text-anchor="middle" x="1267.74" y="-572.6" font-family="Helvetica,sans-Serif" font-size="14.00" style="">samples = 5</text>
<text text-anchor="middle" x="1267.74" y="-555.8" font-family="Helvetica,sans-Serif" font-size="14.00" style="">value = [0, 8, 0, 0]</text>
</g>
<!-- 39&#45;&gt;41 -->
<g id="edge41" class="edge" data-name="39-&gt;41">

<path fill="none" stroke="black" d="M1173.81,-650.03C1189.28,-638.13 1206.38,-624.99 1221.7,-613.21" style=""/>
<polygon fill="black" stroke="black" points="1223.49,-616.24 1229.29,-607.37 1219.22,-610.69 1223.49,-616.24" style=""/>
</g>
<!-- 45 -->
<g id="node46" class="node" pointer-events="visible" data-name="45">

<path fill="none" stroke="black" d="M1526.49,-1162.2C1526.49,-1162.2 1406.98,-1162.2 1406.98,-1162.2 1400.98,-1162.2 1394.98,-1156.2 1394.98,-1150.2 1394.98,-1150.2 1394.98,-1115.4 1394.98,-1115.4 1394.98,-1109.4 1400.98,-1103.4 1406.98,-1103.4 1406.98,-1103.4 1526.49,-1103.4 1526.49,-1103.4 1532.49,-1103.4 1538.49,-1109.4 1538.49,-1115.4 1538.49,-1115.4 1538.49,-1150.2 1538.49,-1150.2 1538.49,-1156.2 1532.49,-1162.2 1526.49,-1162.2" style=""/>
<text text-anchor="middle" x="1466.74" y="-1145.4" font-family="Helvetica,sans-Serif" font-size="14.00" style="">gini = 0.0</text>
<text text-anchor="middle" x="1466.74" y="-1128.6" font-family="Helvetica,sans-Serif" font-size="14.00" style="">samples = 101</text>
<text text-anchor="middle" x="1466.74" y="-1111.8" font-family="Helvetica,sans-Serif" font-size="14.00" style="">value = [164, 0, 0, 0]</text>
</g>
<!-- 44&#45;&gt;45 -->
<g id="edge45" class="edge" data-name="44-&gt;45">

<path fill="none" stroke="black" d="M1466.74,-1206.03C1466.74,-1195.69 1466.74,-1184.41 1466.74,-1173.89" style=""/>
<polygon fill="black" stroke="black" points="1470.24,-1173.96 1466.74,-1163.96 1463.24,-1173.96 1470.24,-1173.96" style=""/>
</g>
<!-- 46 -->
<g id="node47" class="node" pointer-events="visible" data-name="46">

<path fill="none" stroke="black" d="M1721.28,-1170.5C1721.28,-1170.5 1594.19,-1170.5 1594.19,-1170.5 1588.19,-1170.5 1582.19,-1164.5 1582.19,-1158.5 1582.19,-1158.5 1582.19,-1107.1 1582.19,-1107.1 1582.19,-1101.1 1588.19,-1095.1 1594.19,-1095.1 1594.19,-1095.1 1721.28,-1095.1 1721.28,-1095.1 1727.28,-1095.1 1733.28,-1101.1 1733.28,-1107.1 1733.28,-1107.1 1733.28,-1158.5 1733.28,-1158.5 1733.28,-1164.5 1727.28,-1170.5 1721.28,-1170.5" style=""/>
<text text-anchor="middle" x="1657.74" y="-1153.8" font-family="Helvetica,sans-Serif" font-size="14.00" style="">x[69] &lt;= 1.5</text>
<text text-anchor="middle" x="1657.74" y="-1137" font-family="Helvetica,sans-Serif" font-size="14.00" style="">gini = 0.1</text>
<text text-anchor="middle" x="1657.74" y="-1120.2" font-family="Helvetica,sans-Serif" font-size="14.00" style="">samples = 145</text>
<text text-anchor="middle" x="1657.74" y="-1103.4" font-family="Helvetica,sans-Serif" font-size="14.00" style="">value = [0, 214, 15, 2]</text>
</g>
<!-- 44&#45;&gt;46 -->
<g id="edge46" class="edge" data-name="44-&gt;46">

<path fill="none" stroke="black" d="M1531.67,-1205.88C1548.21,-1196.42 1566.12,-1186.18 1583.11,-1176.47" style=""/>
<polygon fill="black" stroke="black" points="1584.73,-1179.57 1591.67,-1171.57 1581.25,-1173.5 1584.73,-1179.57" style=""/>
</g>
<!-- 47 -->
<g id="node48" class="node" pointer-events="visible" data-name="47">

<path fill="none" stroke="black" d="M1717.49,-1059.3C1717.49,-1059.3 1597.98,-1059.3 1597.98,-1059.3 1591.98,-1059.3 1585.98,-1053.3 1585.98,-1047.3 1585.98,-1047.3 1585.98,-995.9 1585.98,-995.9 1585.98,-989.9 1591.98,-983.9 1597.98,-983.9 1597.98,-983.9 1717.49,-983.9 1717.49,-983.9 1723.49,-983.9 1729.49,-989.9 1729.49,-995.9 1729.49,-995.9 1729.49,-1047.3 1729.49,-1047.3 1729.49,-1053.3 1723.49,-1059.3 1717.49,-1059.3" style=""/>
<text text-anchor="middle" x="1657.74" y="-1042.6" font-family="Helvetica,sans-Serif" font-size="14.00" style="">x[2] &lt;= 117.0</text>
<text text-anchor="middle" x="1657.74" y="-1025.8" font-family="Helvetica,sans-Serif" font-size="14.00" style="">gini = 0.1</text>
<text text-anchor="middle" x="1657.74" y="-1009" font-family="Helvetica,sans-Serif" font-size="14.00" style="">samples = 112</text>
<text text-anchor="middle" x="1657.74" y="-992.2" font-family="Helvetica,sans-Serif" font-size="14.00" style="">value = [0, 173, 4, 2]</text>
</g>
<!-- 46&#45;&gt;47 -->
<g id="edge47" class="edge" data-name="46-&gt;47">

<path fill="none" stroke="black" d="M1657.74,-1094.83C1657.74,-1087.18 1657.74,-1079.01 1657.74,-1071.03" style=""/>
<polygon fill="black" stroke="black" points="1661.24,-1071.05 1657.74,-1061.05 1654.24,-1071.05 1661.24,-1071.05" style=""/>
</g>
<!-- 60 -->
<g id="node61" class="node" pointer-events="visible" data-name="60">

<path fill="none" stroke="black" d="M2157.49,-1059.3C2157.49,-1059.3 2037.98,-1059.3 2037.98,-1059.3 2031.98,-1059.3 2025.98,-1053.3 2025.98,-1047.3 2025.98,-1047.3 2025.98,-995.9 2025.98,-995.9 2025.98,-989.9 2031.98,-983.9 2037.98,-983.9 2037.98,-983.9 2157.49,-983.9 2157.49,-983.9 2163.49,-983.9 2169.49,-989.9 2169.49,-995.9 2169.49,-995.9 2169.49,-1047.3 2169.49,-1047.3 2169.49,-1053.3 2163.49,-1059.3 2157.49,-1059.3" style=""/>
<text text-anchor="middle" x="2097.74" y="-1042.6" font-family="Helvetica,sans-Serif" font-size="14.00" style="">x[14] &lt;= 284.0</text>
<text text-anchor="middle" x="2097.74" y="-1025.8" font-family="Helvetica,sans-Serif" font-size="14.00" style="">gini = 0.3</text>
<text text-anchor="middle" x="2097.74" y="-1009" font-family="Helvetica,sans-Serif" font-size="14.00" style="">samples = 33</text>
<text text-anchor="middle" x="2097.74" y="-992.2" font-family="Helvetica,sans-Serif" font-size="14.00" style="">value = [0, 41, 11, 0]</text>
</g>
<!-- 46&#45;&gt;60 -->
<g id="edge60" class="edge" data-name="46-&gt;60">

<path fill="none" stroke="black" d="M1733.62,-1112.97C1811.93,-1093.53 1933.72,-1063.31 2014.59,-1043.24" style=""/>
<polygon fill="black" stroke="black" points="2015.39,-1046.64 2024.25,-1040.84 2013.7,-1039.85 2015.39,-1046.64" style=""/>
</g>
<!-- 48 -->
<g id="node49" class="node" pointer-events="visible" data-name="48">

<path fill="none" stroke="black" d="M1641.49,-948.1C1641.49,-948.1 1521.98,-948.1 1521.98,-948.1 1515.98,-948.1 1509.98,-942.1 1509.98,-936.1 1509.98,-936.1 1509.98,-884.7 1509.98,-884.7 1509.98,-878.7 1515.98,-872.7 1521.98,-872.7 1521.98,-872.7 1641.49,-872.7 1641.49,-872.7 1647.49,-872.7 1653.49,-878.7 1653.49,-884.7 1653.49,-884.7 1653.49,-936.1 1653.49,-936.1 1653.49,-942.1 1647.49,-948.1 1641.49,-948.1" style=""/>
<text text-anchor="middle" x="1581.74" y="-931.4" font-family="Helvetica,sans-Serif" font-size="14.00" style="">x[45] &lt;= 2.5</text>
<text text-anchor="middle" x="1581.74" y="-914.6" font-family="Helvetica,sans-Serif" font-size="14.00" style="">gini = 0.0</text>
<text text-anchor="middle" x="1581.74" y="-897.8" font-family="Helvetica,sans-Serif" font-size="14.00" style="">samples = 107</text>
<text text-anchor="middle" x="1581.74" y="-881" font-family="Helvetica,sans-Serif" font-size="14.00" style="">value = [0, 168, 4, 0]</text>
</g>
<!-- 47&#45;&gt;48 -->
<g id="edge48" class="edge" data-name="47-&gt;48">

<path fill="none" stroke="black" d="M1632.01,-983.63C1626.19,-975.27 1619.94,-966.29 1613.89,-957.6" style=""/>
<polygon fill="black" stroke="black" points="1616.89,-955.78 1608.3,-949.57 1611.14,-959.78 1616.89,-955.78" style=""/>
</g>
<!-- 57 -->
<g id="node58" class="node" pointer-events="visible" data-name="57">

<path fill="none" stroke="black" d="M1786.42,-948.1C1786.42,-948.1 1683.05,-948.1 1683.05,-948.1 1677.05,-948.1 1671.05,-942.1 1671.05,-936.1 1671.05,-936.1 1671.05,-884.7 1671.05,-884.7 1671.05,-878.7 1677.05,-872.7 1683.05,-872.7 1683.05,-872.7 1786.42,-872.7 1786.42,-872.7 1792.42,-872.7 1798.42,-878.7 1798.42,-884.7 1798.42,-884.7 1798.42,-936.1 1798.42,-936.1 1798.42,-942.1 1792.42,-948.1 1786.42,-948.1" style=""/>
<text text-anchor="middle" x="1734.74" y="-931.4" font-family="Helvetica,sans-Serif" font-size="14.00" style="">x[21] &lt;= 3.5</text>
<text text-anchor="middle" x="1734.74" y="-914.6" font-family="Helvetica,sans-Serif" font-size="14.00" style="">gini = 0.4</text>
<text text-anchor="middle" x="1734.74" y="-897.8" font-family="Helvetica,sans-Serif" font-size="14.00" style="">samples = 5</text>
<text text-anchor="middle" x="1734.74" y="-881" font-family="Helvetica,sans-Serif" font-size="14.00" style="">value = [0, 5, 0, 2]</text>
</g>
<!-- 47&#45;&gt;57 -->
<g id="edge57" class="edge" data-name="47-&gt;57">

<path fill="none" stroke="black" d="M1683.8,-983.63C1689.7,-975.27 1696.03,-966.29 1702.16,-957.6" style=""/>
<polygon fill="black" stroke="black" points="1704.92,-959.76 1707.82,-949.57 1699.2,-955.72 1704.92,-959.76" style=""/>
</g>
<!-- 49 -->
<g id="node50" class="node" pointer-events="visible" data-name="49">

<path fill="none" stroke="black" d="M1485.49,-836.9C1485.49,-836.9 1365.98,-836.9 1365.98,-836.9 1359.98,-836.9 1353.98,-830.9 1353.98,-824.9 1353.98,-824.9 1353.98,-773.5 1353.98,-773.5 1353.98,-767.5 1359.98,-761.5 1365.98,-761.5 1365.98,-761.5 1485.49,-761.5 1485.49,-761.5 1491.49,-761.5 1497.49,-767.5 1497.49,-773.5 1497.49,-773.5 1497.49,-824.9 1497.49,-824.9 1497.49,-830.9 1491.49,-836.9 1485.49,-836.9" style=""/>
<text text-anchor="middle" x="1425.74" y="-820.2" font-family="Helvetica,sans-Serif" font-size="14.00" style="">x[19] &lt;= 2.5</text>
<text text-anchor="middle" x="1425.74" y="-803.4" font-family="Helvetica,sans-Serif" font-size="14.00" style="">gini = 0.0</text>
<text text-anchor="middle" x="1425.74" y="-786.6" font-family="Helvetica,sans-Serif" font-size="14.00" style="">samples = 94</text>
<text text-anchor="middle" x="1425.74" y="-769.8" font-family="Helvetica,sans-Serif" font-size="14.00" style="">value = [0, 148, 1, 0]</text>
</g>
<!-- 48&#45;&gt;49 -->
<g id="edge49" class="edge" data-name="48-&gt;49">

<path fill="none" stroke="black" d="M1528.92,-872.43C1515.78,-863.23 1501.57,-853.28 1488.02,-843.8" style=""/>
<polygon fill="black" stroke="black" points="1490.2,-841.05 1480,-838.19 1486.19,-846.79 1490.2,-841.05" style=""/>
</g>
<!-- 54 -->
<g id="node55" class="node" pointer-events="visible" data-name="54">

<path fill="none" stroke="black" d="M1638.71,-836.9C1638.71,-836.9 1526.76,-836.9 1526.76,-836.9 1520.76,-836.9 1514.76,-830.9 1514.76,-824.9 1514.76,-824.9 1514.76,-773.5 1514.76,-773.5 1514.76,-767.5 1520.76,-761.5 1526.76,-761.5 1526.76,-761.5 1638.71,-761.5 1638.71,-761.5 1644.71,-761.5 1650.71,-767.5 1650.71,-773.5 1650.71,-773.5 1650.71,-824.9 1650.71,-824.9 1650.71,-830.9 1644.71,-836.9 1638.71,-836.9" style=""/>
<text text-anchor="middle" x="1582.74" y="-820.2" font-family="Helvetica,sans-Serif" font-size="14.00" style="">x[37] &lt;= 365450.0</text>
<text text-anchor="middle" x="1582.74" y="-803.4" font-family="Helvetica,sans-Serif" font-size="14.00" style="">gini = 0.2</text>
<text text-anchor="middle" x="1582.74" y="-786.6" font-family="Helvetica,sans-Serif" font-size="14.00" style="">samples = 13</text>
<text text-anchor="middle" x="1582.74" y="-769.8" font-family="Helvetica,sans-Serif" font-size="14.00" style="">value = [0, 20, 3, 0]</text>
</g>
<!-- 48&#45;&gt;54 -->
<g id="edge54" class="edge" data-name="48-&gt;54">

<path fill="none" stroke="black" d="M1582.07,-872.43C1582.14,-864.78 1582.22,-856.61 1582.29,-848.63" style=""/>
<polygon fill="black" stroke="black" points="1585.79,-848.68 1582.38,-838.65 1578.79,-848.61 1585.79,-848.68" style=""/>
</g>
<!-- 50 -->
<g id="node51" class="node" pointer-events="visible" data-name="50">

<path fill="none" stroke="black" d="M1339.49,-717.4C1339.49,-717.4 1219.98,-717.4 1219.98,-717.4 1213.98,-717.4 1207.98,-711.4 1207.98,-705.4 1207.98,-705.4 1207.98,-670.6 1207.98,-670.6 1207.98,-664.6 1213.98,-658.6 1219.98,-658.6 1219.98,-658.6 1339.49,-658.6 1339.49,-658.6 1345.49,-658.6 1351.49,-664.6 1351.49,-670.6 1351.49,-670.6 1351.49,-705.4 1351.49,-705.4 1351.49,-711.4 1345.49,-717.4 1339.49,-717.4" style=""/>
<text text-anchor="middle" x="1279.74" y="-700.6" font-family="Helvetica,sans-Serif" font-size="14.00" style="">gini = 0.0</text>
<text text-anchor="middle" x="1279.74" y="-683.8" font-family="Helvetica,sans-Serif" font-size="14.00" style="">samples = 92</text>
<text text-anchor="middle" x="1279.74" y="-667" font-family="Helvetica,sans-Serif" font-size="14.00" style="">value = [0, 146, 0, 0]</text>
</g>
<!-- 49&#45;&gt;50 -->
<g id="edge50" class="edge" data-name="49-&gt;50">

<path fill="none" stroke="black" d="M1376.31,-761.23C1360.4,-749.33 1342.82,-736.19 1327.07,-724.41" style=""/>
<polygon fill="black" stroke="black" points="1329.35,-721.74 1319.25,-718.55 1325.16,-727.35 1329.35,-721.74" style=""/>
</g>
<!-- 51 -->
<g id="node52" class="node" pointer-events="visible" data-name="51">

<path fill="none" stroke="black" d="M1484.42,-725.7C1484.42,-725.7 1381.05,-725.7 1381.05,-725.7 1375.05,-725.7 1369.05,-719.7 1369.05,-713.7 1369.05,-713.7 1369.05,-662.3 1369.05,-662.3 1369.05,-656.3 1375.05,-650.3 1381.05,-650.3 1381.05,-650.3 1484.42,-650.3 1484.42,-650.3 1490.42,-650.3 1496.42,-656.3 1496.42,-662.3 1496.42,-662.3 1496.42,-713.7 1496.42,-713.7 1496.42,-719.7 1490.42,-725.7 1484.42,-725.7" style=""/>
<text text-anchor="middle" x="1432.74" y="-709" font-family="Helvetica,sans-Serif" font-size="14.00" style="">x[13] &lt;= 1299.0</text>
<text text-anchor="middle" x="1432.74" y="-692.2" font-family="Helvetica,sans-Serif" font-size="14.00" style="">gini = 0.4</text>
<text text-anchor="middle" x="1432.74" y="-675.4" font-family="Helvetica,sans-Serif" font-size="14.00" style="">samples = 2</text>
<text text-anchor="middle" x="1432.74" y="-658.6" font-family="Helvetica,sans-Serif" font-size="14.00" style="">value = [0, 2, 1, 0]</text>
</g>
<!-- 49&#45;&gt;51 -->
<g id="edge51" class="edge" data-name="49-&gt;51">

<path fill="none" stroke="black" d="M1428.11,-761.23C1428.6,-753.49 1429.13,-745.22 1429.65,-737.15" style=""/>
<polygon fill="black" stroke="black" points="1433.12,-737.65 1430.27,-727.44 1426.14,-737.2 1433.12,-737.65" style=""/>
</g>
<!-- 52 -->
<g id="node53" class="node" pointer-events="visible" data-name="52">

<path fill="none" stroke="black" d="M1475.42,-606.2C1475.42,-606.2 1372.05,-606.2 1372.05,-606.2 1366.05,-606.2 1360.05,-600.2 1360.05,-594.2 1360.05,-594.2 1360.05,-559.4 1360.05,-559.4 1360.05,-553.4 1366.05,-547.4 1372.05,-547.4 1372.05,-547.4 1475.42,-547.4 1475.42,-547.4 1481.42,-547.4 1487.42,-553.4 1487.42,-559.4 1487.42,-559.4 1487.42,-594.2 1487.42,-594.2 1487.42,-600.2 1481.42,-606.2 1475.42,-606.2" style=""/>
<text text-anchor="middle" x="1423.74" y="-589.4" font-family="Helvetica,sans-Serif" font-size="14.00" style="">gini = 0.0</text>
<text text-anchor="middle" x="1423.74" y="-572.6" font-family="Helvetica,sans-Serif" font-size="14.00" style="">samples = 1</text>
<text text-anchor="middle" x="1423.74" y="-555.8" font-family="Helvetica,sans-Serif" font-size="14.00" style="">value = [0, 2, 0, 0]</text>
</g>
<!-- 51&#45;&gt;52 -->
<g id="edge52" class="edge" data-name="51-&gt;52">

<path fill="none" stroke="black" d="M1429.69,-650.03C1428.84,-639.69 1427.91,-628.41 1427.04,-617.89" style=""/>
<polygon fill="black" stroke="black" points="1430.53,-617.63 1426.22,-607.95 1423.55,-618.21 1430.53,-617.63" style=""/>
</g>
<!-- 53 -->
<g id="node54" class="node" pointer-events="visible" data-name="53">

<path fill="none" stroke="black" d="M1621.42,-606.2C1621.42,-606.2 1518.05,-606.2 1518.05,-606.2 1512.05,-606.2 1506.05,-600.2 1506.05,-594.2 1506.05,-594.2 1506.05,-559.4 1506.05,-559.4 1506.05,-553.4 1512.05,-547.4 1518.05,-547.4 1518.05,-547.4 1621.42,-547.4 1621.42,-547.4 1627.42,-547.4 1633.42,-553.4 1633.42,-559.4 1633.42,-559.4 1633.42,-594.2 1633.42,-594.2 1633.42,-600.2 1627.42,-606.2 1621.42,-606.2" style=""/>
<text text-anchor="middle" x="1569.74" y="-589.4" font-family="Helvetica,sans-Serif" font-size="14.00" style="">gini = 0.0</text>
<text text-anchor="middle" x="1569.74" y="-572.6" font-family="Helvetica,sans-Serif" font-size="14.00" style="">samples = 1</text>
<text text-anchor="middle" x="1569.74" y="-555.8" font-family="Helvetica,sans-Serif" font-size="14.00" style="">value = [0, 0, 1, 0]</text>
</g>
<!-- 51&#45;&gt;53 -->
<g id="edge53" class="edge" data-name="51-&gt;53">

<path fill="none" stroke="black" d="M1479.12,-650.03C1493.9,-638.24 1510.23,-625.23 1524.9,-613.54" style=""/>
<polygon fill="black" stroke="black" points="1526.97,-616.36 1532.61,-607.39 1522.61,-610.89 1526.97,-616.36" style=""/>
</g>
<!-- 55 -->
<g id="node56" class="node" pointer-events="visible" data-name="55">

<path fill="none" stroke="black" d="M1638.71,-717.4C1638.71,-717.4 1526.76,-717.4 1526.76,-717.4 1520.76,-717.4 1514.76,-711.4 1514.76,-705.4 1514.76,-705.4 1514.76,-670.6 1514.76,-670.6 1514.76,-664.6 1520.76,-658.6 1526.76,-658.6 1526.76,-658.6 1638.71,-658.6 1638.71,-658.6 1644.71,-658.6 1650.71,-664.6 1650.71,-670.6 1650.71,-670.6 1650.71,-705.4 1650.71,-705.4 1650.71,-711.4 1644.71,-717.4 1638.71,-717.4" style=""/>
<text text-anchor="middle" x="1582.74" y="-700.6" font-family="Helvetica,sans-Serif" font-size="14.00" style="">gini = 0.0</text>
<text text-anchor="middle" x="1582.74" y="-683.8" font-family="Helvetica,sans-Serif" font-size="14.00" style="">samples = 11</text>
<text text-anchor="middle" x="1582.74" y="-667" font-family="Helvetica,sans-Serif" font-size="14.00" style="">value = [0, 20, 0, 0]</text>
</g>
<!-- 54&#45;&gt;55 -->
<g id="edge55" class="edge" data-name="54-&gt;55">

<path fill="none" stroke="black" d="M1582.74,-761.23C1582.74,-750.89 1582.74,-739.61 1582.74,-729.09" style=""/>
<polygon fill="black" stroke="black" points="1586.24,-729.16 1582.74,-719.16 1579.24,-729.16 1586.24,-729.16" style=""/>
</g>
<!-- 56 -->
<g id="node57" class="node" pointer-events="visible" data-name="56">

<path fill="none" stroke="black" d="M1784.42,-717.4C1784.42,-717.4 1681.05,-717.4 1681.05,-717.4 1675.05,-717.4 1669.05,-711.4 1669.05,-705.4 1669.05,-705.4 1669.05,-670.6 1669.05,-670.6 1669.05,-664.6 1675.05,-658.6 1681.05,-658.6 1681.05,-658.6 1784.42,-658.6 1784.42,-658.6 1790.42,-658.6 1796.42,-664.6 1796.42,-670.6 1796.42,-670.6 1796.42,-705.4 1796.42,-705.4 1796.42,-711.4 1790.42,-717.4 1784.42,-717.4" style=""/>
<text text-anchor="middle" x="1732.74" y="-700.6" font-family="Helvetica,sans-Serif" font-size="14.00" style="">gini = 0.0</text>
<text text-anchor="middle" x="1732.74" y="-683.8" font-family="Helvetica,sans-Serif" font-size="14.00" style="">samples = 2</text>
<text text-anchor="middle" x="1732.74" y="-667" font-family="Helvetica,sans-Serif" font-size="14.00" style="">value = [0, 0, 3, 0]</text>
</g>
<!-- 54&#45;&gt;56 -->
<g id="edge56" class="edge" data-name="54-&gt;56">

<path fill="none" stroke="black" d="M1633.52,-761.23C1649.86,-749.33 1667.92,-736.19 1684.1,-724.41" style=""/>
<polygon fill="black" stroke="black" points="1686.14,-727.25 1692.16,-718.54 1682.02,-721.59 1686.14,-727.25" style=""/>
</g>
<!-- 58 -->
<g id="node59" class="node" pointer-events="visible" data-name="58">

<path fill="none" stroke="black" d="M1784.42,-828.6C1784.42,-828.6 1681.05,-828.6 1681.05,-828.6 1675.05,-828.6 1669.05,-822.6 1669.05,-816.6 1669.05,-816.6 1669.05,-781.8 1669.05,-781.8 1669.05,-775.8 1675.05,-769.8 1681.05,-769.8 1681.05,-769.8 1784.42,-769.8 1784.42,-769.8 1790.42,-769.8 1796.42,-775.8 1796.42,-781.8 1796.42,-781.8 1796.42,-816.6 1796.42,-816.6 1796.42,-822.6 1790.42,-828.6 1784.42,-828.6" style=""/>
<text text-anchor="middle" x="1732.74" y="-811.8" font-family="Helvetica,sans-Serif" font-size="14.00" style="">gini = 0.0</text>
<text text-anchor="middle" x="1732.74" y="-795" font-family="Helvetica,sans-Serif" font-size="14.00" style="">samples = 4</text>
<text text-anchor="middle" x="1732.74" y="-778.2" font-family="Helvetica,sans-Serif" font-size="14.00" style="">value = [0, 5, 0, 0]</text>
</g>
<!-- 57&#45;&gt;58 -->
<g id="edge58" class="edge" data-name="57-&gt;58">

<path fill="none" stroke="black" d="M1734.06,-872.43C1733.87,-862.09 1733.66,-850.81 1733.47,-840.29" style=""/>
<polygon fill="black" stroke="black" points="1736.97,-840.29 1733.29,-830.36 1729.97,-840.42 1736.97,-840.29" style=""/>
</g>
<!-- 59 -->
<g id="node60" class="node" pointer-events="visible" data-name="59">

<path fill="none" stroke="black" d="M1930.42,-828.6C1930.42,-828.6 1827.05,-828.6 1827.05,-828.6 1821.05,-828.6 1815.05,-822.6 1815.05,-816.6 1815.05,-816.6 1815.05,-781.8 1815.05,-781.8 1815.05,-775.8 1821.05,-769.8 1827.05,-769.8 1827.05,-769.8 1930.42,-769.8 1930.42,-769.8 1936.42,-769.8 1942.42,-775.8 1942.42,-781.8 1942.42,-781.8 1942.42,-816.6 1942.42,-816.6 1942.42,-822.6 1936.42,-828.6 1930.42,-828.6" style=""/>
<text text-anchor="middle" x="1878.74" y="-811.8" font-family="Helvetica,sans-Serif" font-size="14.00" style="">gini = 0.0</text>
<text text-anchor="middle" x="1878.74" y="-795" font-family="Helvetica,sans-Serif" font-size="14.00" style="">samples = 1</text>
<text text-anchor="middle" x="1878.74" y="-778.2" font-family="Helvetica,sans-Serif" font-size="14.00" style="">value = [0, 0, 0, 2]</text>
</g>
<!-- 57&#45;&gt;59 -->
<g id="edge59" class="edge" data-name="57-&gt;59">

<path fill="none" stroke="black" d="M1783.49,-872.43C1799.18,-860.53 1816.51,-847.39 1832.05,-835.61" style=""/>
<polygon fill="black" stroke="black" points="1833.9,-838.59 1839.75,-829.76 1829.67,-833.01 1833.9,-838.59" style=""/>
</g>
<!-- 61 -->
<g id="node62" class="node" pointer-events="visible" data-name="61">

<path fill="none" stroke="black" d="M2153.71,-948.1C2153.71,-948.1 2041.76,-948.1 2041.76,-948.1 2035.76,-948.1 2029.76,-942.1 2029.76,-936.1 2029.76,-936.1 2029.76,-884.7 2029.76,-884.7 2029.76,-878.7 2035.76,-872.7 2041.76,-872.7 2041.76,-872.7 2153.71,-872.7 2153.71,-872.7 2159.71,-872.7 2165.71,-878.7 2165.71,-884.7 2165.71,-884.7 2165.71,-936.1 2165.71,-936.1 2165.71,-942.1 2159.71,-948.1 2153.71,-948.1" style=""/>
<text text-anchor="middle" x="2097.74" y="-931.4" font-family="Helvetica,sans-Serif" font-size="14.00" style="">x[11] &lt;= 361.5</text>
<text text-anchor="middle" x="2097.74" y="-914.6" font-family="Helvetica,sans-Serif" font-size="14.00" style="">gini = 0.1</text>
<text text-anchor="middle" x="2097.74" y="-897.8" font-family="Helvetica,sans-Serif" font-size="14.00" style="">samples = 17</text>
<text text-anchor="middle" x="2097.74" y="-881" font-family="Helvetica,sans-Serif" font-size="14.00" style="">value = [0, 24, 1, 0]</text>
</g>
<!-- 60&#45;&gt;61 -->
<g id="edge61" class="edge" data-name="60-&gt;61">

<path fill="none" stroke="black" d="M2097.74,-983.63C2097.74,-975.98 2097.74,-967.81 2097.74,-959.83" style=""/>
<polygon fill="black" stroke="black" points="2101.24,-959.85 2097.74,-949.85 2094.24,-959.85 2101.24,-959.85" style=""/>
</g>
<!-- 66 -->
<g id="node67" class="node" pointer-events="visible" data-name="66">

<path fill="none" stroke="black" d="M2387.49,-948.1C2387.49,-948.1 2267.98,-948.1 2267.98,-948.1 2261.98,-948.1 2255.98,-942.1 2255.98,-936.1 2255.98,-936.1 2255.98,-884.7 2255.98,-884.7 2255.98,-878.7 2261.98,-872.7 2267.98,-872.7 2267.98,-872.7 2387.49,-872.7 2387.49,-872.7 2393.49,-872.7 2399.49,-878.7 2399.49,-884.7 2399.49,-884.7 2399.49,-936.1 2399.49,-936.1 2399.49,-942.1 2393.49,-948.1 2387.49,-948.1" style=""/>
<text text-anchor="middle" x="2327.74" y="-931.4" font-family="Helvetica,sans-Serif" font-size="14.00" style="">x[3] &lt;= 12456.0</text>
<text text-anchor="middle" x="2327.74" y="-914.6" font-family="Helvetica,sans-Serif" font-size="14.00" style="">gini = 0.5</text>
<text text-anchor="middle" x="2327.74" y="-897.8" font-family="Helvetica,sans-Serif" font-size="14.00" style="">samples = 16</text>
<text text-anchor="middle" x="2327.74" y="-881" font-family="Helvetica,sans-Serif" font-size="14.00" style="">value = [0, 17, 10, 0]</text>
</g>
<!-- 60&#45;&gt;66 -->
<g id="edge66" class="edge" data-name="60-&gt;66">

<path fill="none" stroke="black" d="M2169.88,-986.35C2193.96,-974.91 2220.97,-962.09 2245.75,-950.33" style=""/>
<polygon fill="black" stroke="black" points="2246.95,-953.63 2254.48,-946.18 2243.95,-947.31 2246.95,-953.63" style=""/>
</g>
<!-- 62 -->
<g id="node63" class="node" pointer-events="visible" data-name="62">

<path fill="none" stroke="black" d="M2076.42,-836.9C2076.42,-836.9 1973.05,-836.9 1973.05,-836.9 1967.05,-836.9 1961.05,-830.9 1961.05,-824.9 1961.05,-824.9 1961.05,-773.5 1961.05,-773.5 1961.05,-767.5 1967.05,-761.5 1973.05,-761.5 1973.05,-761.5 2076.42,-761.5 2076.42,-761.5 2082.42,-761.5 2088.42,-767.5 2088.42,-773.5 2088.42,-773.5 2088.42,-824.9 2088.42,-824.9 2088.42,-830.9 2082.42,-836.9 2076.42,-836.9" style=""/>
<text text-anchor="middle" x="2024.74" y="-820.2" font-family="Helvetica,sans-Serif" font-size="14.00" style="">x[0] &lt;= 583.5</text>
<text text-anchor="middle" x="2024.74" y="-803.4" font-family="Helvetica,sans-Serif" font-size="14.00" style="">gini = 0.4</text>
<text text-anchor="middle" x="2024.74" y="-786.6" font-family="Helvetica,sans-Serif" font-size="14.00" style="">samples = 3</text>
<text text-anchor="middle" x="2024.74" y="-769.8" font-family="Helvetica,sans-Serif" font-size="14.00" style="">value = [0, 3, 1, 0]</text>
</g>
<!-- 61&#45;&gt;62 -->
<g id="edge62" class="edge" data-name="61-&gt;62">

<path fill="none" stroke="black" d="M2073.02,-872.43C2067.49,-864.16 2061.56,-855.28 2055.81,-846.68" style=""/>
<polygon fill="black" stroke="black" points="2058.73,-844.76 2050.27,-838.39 2052.91,-848.65 2058.73,-844.76" style=""/>
</g>
<!-- 65 -->
<g id="node66" class="node" pointer-events="visible" data-name="65">

<path fill="none" stroke="black" d="M2230.71,-828.6C2230.71,-828.6 2118.76,-828.6 2118.76,-828.6 2112.76,-828.6 2106.76,-822.6 2106.76,-816.6 2106.76,-816.6 2106.76,-781.8 2106.76,-781.8 2106.76,-775.8 2112.76,-769.8 2118.76,-769.8 2118.76,-769.8 2230.71,-769.8 2230.71,-769.8 2236.71,-769.8 2242.71,-775.8 2242.71,-781.8 2242.71,-781.8 2242.71,-816.6 2242.71,-816.6 2242.71,-822.6 2236.71,-828.6 2230.71,-828.6" style=""/>
<text text-anchor="middle" x="2174.74" y="-811.8" font-family="Helvetica,sans-Serif" font-size="14.00" style="">gini = 0.0</text>
<text text-anchor="middle" x="2174.74" y="-795" font-family="Helvetica,sans-Serif" font-size="14.00" style="">samples = 14</text>
<text text-anchor="middle" x="2174.74" y="-778.2" font-family="Helvetica,sans-Serif" font-size="14.00" style="">value = [0, 21, 0, 0]</text>
</g>
<!-- 61&#45;&gt;65 -->
<g id="edge65" class="edge" data-name="61-&gt;65">

<path fill="none" stroke="black" d="M2123.8,-872.43C2131.64,-861.31 2140.25,-849.1 2148.13,-837.93" style=""/>
<polygon fill="black" stroke="black" points="2150.76,-840.27 2153.66,-830.08 2145.04,-836.24 2150.76,-840.27" style=""/>
</g>
<!-- 63 -->
<g id="node64" class="node" pointer-events="visible" data-name="63">

<path fill="none" stroke="black" d="M2003.42,-717.4C2003.42,-717.4 1900.05,-717.4 1900.05,-717.4 1894.05,-717.4 1888.05,-711.4 1888.05,-705.4 1888.05,-705.4 1888.05,-670.6 1888.05,-670.6 1888.05,-664.6 1894.05,-658.6 1900.05,-658.6 1900.05,-658.6 2003.42,-658.6 2003.42,-658.6 2009.42,-658.6 2015.42,-664.6 2015.42,-670.6 2015.42,-670.6 2015.42,-705.4 2015.42,-705.4 2015.42,-711.4 2009.42,-717.4 2003.42,-717.4" style=""/>
<text text-anchor="middle" x="1951.74" y="-700.6" font-family="Helvetica,sans-Serif" font-size="14.00" style="">gini = 0.0</text>
<text text-anchor="middle" x="1951.74" y="-683.8" font-family="Helvetica,sans-Serif" font-size="14.00" style="">samples = 1</text>
<text text-anchor="middle" x="1951.74" y="-667" font-family="Helvetica,sans-Serif" font-size="14.00" style="">value = [0, 0, 1, 0]</text>
</g>
<!-- 62&#45;&gt;63 -->
<g id="edge63" class="edge" data-name="62-&gt;63">

<path fill="none" stroke="black" d="M2000.02,-761.23C1992.66,-750.22 1984.59,-738.15 1977.19,-727.07" style=""/>
<polygon fill="black" stroke="black" points="1980.19,-725.27 1971.73,-718.9 1974.37,-729.16 1980.19,-725.27" style=""/>
</g>
<!-- 64 -->
<g id="node65" class="node" pointer-events="visible" data-name="64">

<path fill="none" stroke="black" d="M2149.42,-717.4C2149.42,-717.4 2046.05,-717.4 2046.05,-717.4 2040.05,-717.4 2034.05,-711.4 2034.05,-705.4 2034.05,-705.4 2034.05,-670.6 2034.05,-670.6 2034.05,-664.6 2040.05,-658.6 2046.05,-658.6 2046.05,-658.6 2149.42,-658.6 2149.42,-658.6 2155.42,-658.6 2161.42,-664.6 2161.42,-670.6 2161.42,-670.6 2161.42,-705.4 2161.42,-705.4 2161.42,-711.4 2155.42,-717.4 2149.42,-717.4" style=""/>
<text text-anchor="middle" x="2097.74" y="-700.6" font-family="Helvetica,sans-Serif" font-size="14.00" style="">gini = 0.0</text>
<text text-anchor="middle" x="2097.74" y="-683.8" font-family="Helvetica,sans-Serif" font-size="14.00" style="">samples = 2</text>
<text text-anchor="middle" x="2097.74" y="-667" font-family="Helvetica,sans-Serif" font-size="14.00" style="">value = [0, 3, 0, 0]</text>
</g>
<!-- 62&#45;&gt;64 -->
<g id="edge64" class="edge" data-name="62-&gt;64">

<path fill="none" stroke="black" d="M2049.45,-761.23C2056.81,-750.22 2064.88,-738.15 2072.29,-727.07" style=""/>
<polygon fill="black" stroke="black" points="2075.1,-729.16 2077.74,-718.9 2069.28,-725.27 2075.1,-729.16" style=""/>
</g>
<!-- 67 -->
<g id="node68" class="node" pointer-events="visible" data-name="67">

<path fill="none" stroke="black" d="M2383.71,-828.6C2383.71,-828.6 2271.76,-828.6 2271.76,-828.6 2265.76,-828.6 2259.76,-822.6 2259.76,-816.6 2259.76,-816.6 2259.76,-781.8 2259.76,-781.8 2259.76,-775.8 2265.76,-769.8 2271.76,-769.8 2271.76,-769.8 2383.71,-769.8 2383.71,-769.8 2389.71,-769.8 2395.71,-775.8 2395.71,-781.8 2395.71,-781.8 2395.71,-816.6 2395.71,-816.6 2395.71,-822.6 2389.71,-828.6 2383.71,-828.6" style=""/>
<text text-anchor="middle" x="2327.74" y="-811.8" font-family="Helvetica,sans-Serif" font-size="14.00" style="">gini = 0.0</text>
<text text-anchor="middle" x="2327.74" y="-795" font-family="Helvetica,sans-Serif" font-size="14.00" style="">samples = 11</text>
<text text-anchor="middle" x="2327.74" y="-778.2" font-family="Helvetica,sans-Serif" font-size="14.00" style="">value = [0, 17, 0, 0]</text>
</g>
<!-- 66&#45;&gt;67 -->
<g id="edge67" class="edge" data-name="66-&gt;67">

<path fill="none" stroke="black" d="M2327.74,-872.43C2327.74,-862.09 2327.74,-850.81 2327.74,-840.29" style=""/>
<polygon fill="black" stroke="black" points="2331.24,-840.36 2327.74,-830.36 2324.24,-840.36 2331.24,-840.36" style=""/>
</g>
<!-- 68 -->
<g id="node69" class="node" pointer-events="visible" data-name="68">

<path fill="none" stroke="black" d="M2536.71,-828.6C2536.71,-828.6 2424.76,-828.6 2424.76,-828.6 2418.76,-828.6 2412.76,-822.6 2412.76,-816.6 2412.76,-816.6 2412.76,-781.8 2412.76,-781.8 2412.76,-775.8 2418.76,-769.8 2424.76,-769.8 2424.76,-769.8 2536.71,-769.8 2536.71,-769.8 2542.71,-769.8 2548.71,-775.8 2548.71,-781.8 2548.71,-781.8 2548.71,-816.6 2548.71,-816.6 2548.71,-822.6 2542.71,-828.6 2536.71,-828.6" style=""/>
<text text-anchor="middle" x="2480.74" y="-811.8" font-family="Helvetica,sans-Serif" font-size="14.00" style="">gini = 0.0</text>
<text text-anchor="middle" x="2480.74" y="-795" font-family="Helvetica,sans-Serif" font-size="14.00" style="">samples = 5</text>
<text text-anchor="middle" x="2480.74" y="-778.2" font-family="Helvetica,sans-Serif" font-size="14.00" style="">value = [0, 0, 10, 0]</text>
</g>
<!-- 66&#45;&gt;68 -->
<g id="edge68" class="edge" data-name="66-&gt;68">

<path fill="none" stroke="black" d="M2379.53,-872.43C2396.36,-860.42 2414.97,-847.14 2431.59,-835.28" style=""/>
<polygon fill="black" stroke="black" points="2433.26,-838.38 2439.37,-829.73 2429.19,-832.69 2433.26,-838.38" style=""/>
</g>
</g>
</svg>